<svg id="Group_120" data-name="Group 120" xmlns="http://www.w3.org/2000/svg" width="24.602" height="22.2" viewBox="0 0 24.602 22.2">
  <g id="Group_147" data-name="Group 147">
    <path id="Path_383" data-name="Path 383" d="M15.4,22.2A9.2,9.2,0,1,1,24.6,13a9.176,9.176,0,0,1-9.2,9.2Zm0-16.5a7.2,7.2,0,1,0,7.2,7.2,7.108,7.108,0,0,0-7.2-7.2Z" fill="#fff"/>
  </g>
  <g id="Group_148" data-name="Group 148">
    <path id="Path_384" data-name="Path 384" d="M15.4,19a6.1,6.1,0,1,1,6.1-6.1A6.061,6.061,0,0,1,15.4,19Zm0-11.2a5.1,5.1,0,1,0,5.1,5.1,5.121,5.121,0,0,0-5.1-5.1Z" fill="#fff"/>
  </g>
  <g id="Group_149" data-name="Group 149">
    <path id="Path_385" data-name="Path 385" d="M11.5,6.5H1a.945.945,0,0,1-1-1,.945.945,0,0,1,1-1H11.5a.945.945,0,0,1,1,1,.945.945,0,0,1-1,1Z" fill="#fff"/>
  </g>
  <g id="Group_150" data-name="Group 150">
    <path id="Path_386" data-name="Path 386" d="M14.7,2H1A.945.945,0,0,1,0,1,.945.945,0,0,1,1,0H14.7a.945.945,0,0,1,1,1,1,1,0,0,1-1,1Z" fill="#fff"/>
  </g>
  <g id="Group_151" data-name="Group 151">
    <path id="Path_387" data-name="Path 387" d="M6.7,11H1a.945.945,0,0,1-1-1A.945.945,0,0,1,1,9H6.7a.945.945,0,0,1,1,1,1,1,0,0,1-1,1Z" fill="#fff"/>
  </g>
  <g id="Group_152" data-name="Group 152">
    <path id="Path_388" data-name="Path 388" d="M6.7,15.5H1a1,1,0,0,1,0-2H6.7a.945.945,0,0,1,1,1,1,1,0,0,1-1,1Z" fill="#fff"/>
  </g>
  <g id="Group_153" data-name="Group 153">
    <path id="Path_389" data-name="Path 389" d="M9.3,20H1a1,1,0,0,1,0-2H9.3a1,1,0,0,1,0,2Z" fill="#fff"/>
  </g>
  <g id="Group_154" data-name="Group 154">
    <path id="Path_390" data-name="Path 390" d="M14.9,12.5h.7c.3,0,.5,0,.6.1a.52.52,0,0,1,.2.4.367.367,0,0,1-.1.3c-.1.1-.2.1-.4.1H15v.1a2.92,2.92,0,0,1-.2.9,3.139,3.139,0,0,1-.8,1,.367.367,0,0,0,.3-.1.367.367,0,0,0,.3-.1H15a3.445,3.445,0,0,1,.9.1c.4,0,.6.1.8.1a1.268,1.268,0,0,0,.6-.1.672.672,0,0,1,1,.5.548.548,0,0,1-.4.6,2.958,2.958,0,0,1-1,.2,14.969,14.969,0,0,1-1.8-.3h-.6a.6.6,0,0,0-.4.1,1.689,1.689,0,0,0-.5.2c-.3.1-.4.2-.5.2s-.2-.1-.4-.2a.758.758,0,0,1-.2-.4c0-.1,0-.1.1-.2,0-.1.1-.2.2-.3l.4-.4a.918.918,0,0,0,.4-.6,1.854,1.854,0,0,0,.2-.7v-.4h-.4a.749.749,0,0,1-.5-.1c-.1-.1-.2-.2-.2-.3,0-.3.2-.5.6-.5h.3a2.972,2.972,0,0,1-.2-1.2,2.279,2.279,0,0,1,.3-1.1,2.7,2.7,0,0,1,.8-.7,2.133,2.133,0,0,1,1.2-.3,3.083,3.083,0,0,1,1,.1,3.508,3.508,0,0,1,.8.5,1.729,1.729,0,0,1,.6,1.2.52.52,0,0,1-.2.4.758.758,0,0,1-.4.2.634.634,0,0,1-.6-.5c-.1-.3-.2-.6-.4-.7a.844.844,0,0,0-.7-.2,1.025,1.025,0,0,0-1,1,.749.749,0,0,0,.1.5Q14.75,12.05,14.9,12.5Z" fill="#fff"/>
  </g>
</svg>
