<svg xmlns="http://www.w3.org/2000/svg" width="74.14" height="204.865" viewBox="0 0 74.14 204.865">
  <g id="Group_1616" data-name="Group 1616" transform="translate(-756.719 -402.064)">
    <path id="Path_4130" data-name="Path 4130" d="M68.932,165.224c0,4.71-14.61,8.534-32.636,8.534S3.66,169.934,3.66,165.224,18.27,156.69,36.3,156.69,68.932,160.513,68.932,165.224Z" transform="translate(757.457 433.171)" fill="#c3c5cb"/>
    <g id="Group_930" data-name="Group 930" transform="translate(776.279 402.064)">
      <path id="Path_4131" data-name="Path 4131" d="M33.793.78h-.048c-22.2.036-16.192,21.837-16.192,21.837,0,.348,1.918,14.982,15.389,15.653a6.58,6.58,0,0,0,.7.036H33.9a6.58,6.58,0,0,0,.7-.036C48.067,37.6,49.985,22.965,49.985,22.617,49.985,22.617,55.978.816,33.793.78Z" transform="translate(-16.211 0.153)" fill="#b2b2b2"/>
      <path id="Path_4132" data-name="Path 4132" d="M36.122,2.22h-4.9c-16.588,0-12.465,22.772-12.465,22.772,0,.372,4.231,12.453,14.91,12.453s14.91-12.069,14.91-12.453C48.587,24.992,51.044,2.22,36.122,2.22Z" transform="translate(-15.915 0.439)" fill="#f8dab6"/>
      <rect id="Rectangle_222" data-name="Rectangle 222" width="9.516" height="8.713" transform="translate(12.8 33.522)" fill="#f8dab6"/>
      <g id="Group_929" data-name="Group 929" transform="translate(0 20.623)">
        <path id="Path_4133" data-name="Path 4133" d="M20.9,20.027c.312,1.906-1.426,5.154-2.205,4.195-.971-1.187-1.642-1.606-2.217-3.464-.755-2.445,1.234-4.123,2.205-3.368C20.145,18.553,20.577,18.121,20.9,20.027Z" transform="translate(-16.31 -17.208)" fill="#f8dab6"/>
        <path id="Path_4134" data-name="Path 4134" d="M41.866,20.027c-.312,1.906,1.426,5.154,2.217,4.195.971-1.187,1.642-1.606,2.217-3.464.755-2.445-1.234-4.123-2.205-3.368C42.621,18.553,42.19,18.121,41.866,20.027Z" transform="translate(-11.244 -17.208)" fill="#f8dab6"/>
      </g>
      <path id="Path_4135" data-name="Path 4135" d="M31.625.935c-1.079,2.241-5.693,7.635-3.368,10.775,0,0,5.945,6.568,14.311,6.664,3.164.036,2.984,5.369,2.984,5.369S45.9,20.7,47.7,20.627c.216-.012.491.192.8.5C50.6,13.975,45.552-4.315,31.625.935Z" transform="translate(-14.067 -0.001)" fill="#a9a9a9"/>
      <path id="Path_4136" data-name="Path 4136" d="M33.925.921C35,3.162,39.618,8.555,37.293,11.7c0,0-5.945,6.568-14.323,6.664-3.164.036-2.984,5.369-2.984,5.369s-.348-3.044-2.145-3.116c-.216-.012-.491.192-.8.5C14.952,13.961,17.936-4.029,33.925.921Z" transform="translate(-16.283 0.013)" fill="#a9a9a9"/>
    </g>
    <g id="Group_932" data-name="Group 932" transform="translate(756.719 446.156)">
      <g id="Group_931" data-name="Group 931" transform="translate(0 54.258)">
        <path id="Path_4137" data-name="Path 4137" d="M7.094,90.732a.9.9,0,0,1,.743,1.031l-.551,3.368a.9.9,0,0,1-1.031.743h0a.9.9,0,0,1-.743-1.031l.551-3.368a.889.889,0,0,1,1.031-.743Z" transform="translate(1.103 -80.341)" fill="#f8dab6"/>
        <path id="Path_4138" data-name="Path 4138" d="M6.614,93.682a.9.9,0,0,1,.743,1.031l-.551,3.368a.9.9,0,0,1-1.031.743h0a.9.9,0,0,1-.743-1.031l.551-3.368a.889.889,0,0,1,1.031-.743Z" transform="translate(1.008 -79.755)" fill="#f8dab6"/>
        <path id="Path_4139" data-name="Path 4139" d="M5.366,90.442a1,1,0,0,1,.827,1.151L5.51,95.764a1,1,0,0,1-1.151.827h0a1,1,0,0,1-.827-1.151L4.2,91.257a1.029,1.029,0,0,1,1.163-.815Z" transform="translate(0.71 -80.398)" fill="#f8dab6"/>
        <path id="Path_4140" data-name="Path 4140" d="M4.778,94.082A1.012,1.012,0,0,1,5.6,95.233l-.7,4.291a1,1,0,0,1-1.151.827h0A1,1,0,0,1,2.932,99.2l.7-4.291a1.018,1.018,0,0,1,1.151-.827Z" transform="translate(0.591 -79.676)" fill="#f8dab6"/>
        <path id="Path_4141" data-name="Path 4141" d="M3.584,90.182a.971.971,0,0,1,.8,1.127l-.7,4.267a.971.971,0,0,1-1.127.8h0a.971.971,0,0,1-.8-1.127l.7-4.267a.98.98,0,0,1,1.127-.8Z" transform="translate(0.358 -80.45)" fill="#f8dab6"/>
        <path id="Path_4142" data-name="Path 4142" d="M2.954,93.9a.966.966,0,0,1,.8,1.115l-.575,3.572a.971.971,0,0,1-1.127.8h0a.971.971,0,0,1-.8-1.127l.575-3.56a.993.993,0,0,1,1.127-.8Z" transform="translate(0.257 -79.711)" fill="#f8dab6"/>
        <path id="Path_4143" data-name="Path 4143" d="M1.886,89.881a.789.789,0,0,1,.647.911L1.97,94.244a.789.789,0,0,1-.911.647h0a.789.789,0,0,1-.647-.911l.563-3.452a.807.807,0,0,1,.911-.647Z" transform="translate(0.091 -80.509)" fill="#f8dab6"/>
        <path id="Path_4144" data-name="Path 4144" d="M1.38,92.892a.783.783,0,0,1,.647.9L1.56,96.667a.789.789,0,0,1-.911.647h0a.783.783,0,0,1-.647-.9l.467-2.876a.8.8,0,0,1,.911-.647Z" transform="translate(0.009 -79.912)" fill="#f8dab6"/>
        <path id="Path_4145" data-name="Path 4145" d="M7.807,88.3a1.021,1.021,0,0,1,1.294.659l1.211,3.715a1.021,1.021,0,0,1-.659,1.294h0a1.021,1.021,0,0,1-1.294-.659L7.148,89.593A1.04,1.04,0,0,1,7.807,88.3Z" transform="translate(1.421 -80.832)" fill="#f8dab6"/>
        <path id="Path_4146" data-name="Path 4146" d="M8.736,93.71s.12-1.666.408-.635c.3,1.115,1.642-1.594,1.642-1.594a41.049,41.049,0,0,0-1.63-4.6A27.481,27.481,0,0,1,7.73,82.647l-3.6-.587s-.863,2.014-1.654,3.392S.79,92.823.79,92.823Z" transform="translate(0.168 -82.06)" fill="#f8dab6"/>
      </g>
      <path id="Path_4147" data-name="Path 4147" d="M6.451,95.7c-1.127,2.409-.923,3.727-2.181,3.524h0c-1.258-.216-1.282-2.541-1.282-2.541C2.543,74.9,5.839,70.529,5.839,70.529c.264-19.668,5.993-31.737,5.993-31.737a3.737,3.737,0,0,1,3.392-1.978h0c1.258.2,4.447,2.793,4.243,4.051,0,0-2.181,23.228-6.5,31.114C11.868,73.993,14.025,79.6,6.451,95.7Z" transform="translate(0.596 -36.79)" fill="#f8dab6"/>
    </g>
    <g id="Group_934" data-name="Group 934" transform="translate(810.799 446.168)">
      <g id="Group_933" data-name="Group 933" transform="translate(8.287 54.246)">
        <path id="Path_4148" data-name="Path 4148" d="M55.155,90.732a.9.9,0,0,0-.743,1.031l.551,3.368a.9.9,0,0,0,1.031.743h0a.9.9,0,0,0,.743-1.031L56.2,91.475a.914.914,0,0,0-1.043-.743Z" transform="translate(-51.555 -80.341)" fill="#f8dab6"/>
        <path id="Path_4149" data-name="Path 4149" d="M55.635,93.682a.9.9,0,0,0-.743,1.031l.551,3.368a.9.9,0,0,0,1.031.743h0a.9.9,0,0,0,.743-1.031l-.551-3.368a.9.9,0,0,0-1.031-.743Z" transform="translate(-51.46 -79.755)" fill="#f8dab6"/>
        <path id="Path_4150" data-name="Path 4150" d="M56.929,90.442a1,1,0,0,0-.827,1.151l.671,4.171a1,1,0,0,0,1.151.827h0a1,1,0,0,0,.827-1.151l-.671-4.183a1,1,0,0,0-1.151-.815Z" transform="translate(-51.22 -80.398)" fill="#f8dab6"/>
        <path id="Path_4151" data-name="Path 4151" d="M57.519,94.082a1,1,0,0,0-.827,1.151l.7,4.291a1,1,0,0,0,1.151.827h0a1,1,0,0,0,.827-1.151l-.7-4.291a1.012,1.012,0,0,0-1.151-.827Z" transform="translate(-51.102 -79.676)" fill="#f8dab6"/>
        <path id="Path_4152" data-name="Path 4152" d="M58.716,90.182a.971.971,0,0,0-.8,1.127l.7,4.267a.971.971,0,0,0,1.127.8h0a.971.971,0,0,0,.8-1.127l-.7-4.267a.987.987,0,0,0-1.127-.8Z" transform="translate(-50.861 -80.45)" fill="#f8dab6"/>
        <path id="Path_4153" data-name="Path 4153" d="M59.316,93.9a.966.966,0,0,0-.8,1.115l.575,3.572a.966.966,0,0,0,1.115.8h0a.971.971,0,0,0,.8-1.127l-.575-3.56a.962.962,0,0,0-1.115-.8Z" transform="translate(-50.742 -79.711)" fill="#f8dab6"/>
        <path id="Path_4154" data-name="Path 4154" d="M60.331,89.881a.806.806,0,0,0-.659.911l.563,3.452a.789.789,0,0,0,.911.647h0a.789.789,0,0,0,.647-.911l-.563-3.452a.8.8,0,0,0-.9-.647Z" transform="translate(-50.51 -80.509)" fill="#f8dab6"/>
        <path id="Path_4155" data-name="Path 4155" d="M60.809,92.892a.783.783,0,0,0-.647.9l.467,2.876a.783.783,0,0,0,.9.647h0a.783.783,0,0,0,.647-.9l-.467-2.876a.771.771,0,0,0-.9-.647Z" transform="translate(-50.413 -79.912)" fill="#f8dab6"/>
        <path id="Path_4156" data-name="Path 4156" d="M54.584,88.3a1.021,1.021,0,0,0-1.294.659l-1.211,3.715a1.021,1.021,0,0,0,.659,1.294h0a1.021,1.021,0,0,0,1.294-.659l1.211-3.715a1.03,1.03,0,0,0-.659-1.294Z" transform="translate(-52.026 -80.832)" fill="#f8dab6"/>
        <path id="Path_4157" data-name="Path 4157" d="M54.78,93.71s-.12-1.666-.408-.635c-.3,1.115-1.642-1.594-1.642-1.594a41.048,41.048,0,0,1,1.63-4.6,27.481,27.481,0,0,0,1.426-4.231l3.6-.587s.863,2.014,1.654,3.392,1.69,7.371,1.69,7.371Z" transform="translate(-51.887 -82.06)" fill="#f8dab6"/>
      </g>
      <path id="Path_4158" data-name="Path 4158" d="M58.138,95.7c1.127,2.409.923,3.727,2.181,3.524h0c1.258-.2,1.282-2.541,1.282-2.541.455-21.777-2.853-26.14-2.853-26.14C58.485,50.871,52.756,38.8,52.756,38.8a3.737,3.737,0,0,0-3.392-1.978h0c-1.258.2-4.447,2.793-4.243,4.051,0,0,2.181,23.228,6.508,31.114C52.72,73.991,50.575,79.6,58.138,95.7Z" transform="translate(-45.112 -36.8)" fill="#f8dab6"/>
    </g>
    <path id="Path_4159" data-name="Path 4159" d="M34.635,32.82,12.69,37.614s3.632,5.118,3.632,9.145l.947,45.185c0,4.039,11.794-2.888,16.492-2.888h.875Z" transform="translate(759.249 408.578)" fill="#f8dab6"/>
    <path id="Path_4160" data-name="Path 4160" d="M34.3,47.22h-.863c-4.7,0-7.575,12.621-7.575,16.66,0,0-11.937,17.055-11.482,30.755s7.862,5.513,12.561,5.513H34.3Z" transform="translate(759.583 411.437)" fill="#f8dab6"/>
    <g id="Group_935" data-name="Group 935" transform="translate(773.905 500.522)">
      <path id="Path_4161" data-name="Path 4161" d="M29.4,132.489c-5.214,7.419.108,2.217-3.416,2.217h0c-3.512,0-1.139,9-4.926-2.217S14.33,88.514,14.33,88.514c0-3.512.983-6.364,4.495-6.364h0c3.512,0,14.838,2.265,14.838,5.777C33.662,87.927,34.609,125.07,29.4,132.489Z" transform="translate(-14.33 -82.15)"/>
      <path id="Path_4162" data-name="Path 4162" d="M28.329,162.746c0,3.512.731,3.152-2.781,3.152h0c-3.512,0-4.291-.407-4.291-3.931,0,0-6.82-26.691-1.211-37.85,3.7-7.395,1.055-8.558,4.566-8.558h0c3.512,0,2.649,1.99,4.447,9.013C31.445,133.922,28.329,162.746,28.329,162.746Z" transform="translate(-13.635 -75.517)"/>
      <path id="Path_4163" data-name="Path 4163" d="M32.285,163.4c0,5.2-3.727,4.279-7.023,4.279S17.1,168.5,17.1,163.5c0-3.116,4.087-9.984,8.438-9.984C28.846,153.532,32.285,160.771,32.285,163.4Z" transform="translate(-13.78 -67.98)"/>
    </g>
    <path id="Path_4164" data-name="Path 4164" d="M30.9,32.82l21.765,4.794s-3.452,5.118-3.452,9.145l-.9,45.185c0,4.039-11.854-2.888-16.552-2.888H30.9Z" transform="translate(762.865 408.578)" fill="#f8dab6"/>
    <path id="Path_4165" data-name="Path 4165" d="M30.9,47.22h.863c4.7,0,7.575,12.621,7.575,16.66,0,0,11.985,17.055,11.53,30.755s-7.922,5.513-12.621,5.513H30.9Z" transform="translate(762.865 411.437)" fill="#f8dab6"/>
    <g id="Group_936" data-name="Group 936" transform="translate(794.344 500.522)">
      <path id="Path_4166" data-name="Path 4166" d="M35.706,132.489c5.214,7.419-.108,2.217,3.416,2.217h0c3.512,0,1.139,9,4.926-2.217s6.784-43.974,6.784-43.974c0-3.512-4.363-6.364-7.874-6.364h0c-3.512,0-11.506,2.265-11.506,5.777C31.451,87.927,30.5,125.07,35.706,132.489Z" transform="translate(-31.384 -82.15)"/>
      <path id="Path_4167" data-name="Path 4167" d="M35.418,163.034c0,3.512-.563,2.865,2.948,2.865h0c3.512,0,4.183-.431,4.183-3.943,0,0,7.071-25.733,1.318-37.838-3.548-7.467-1.055-8.558-4.566-8.558h0c-3.512,0-2.649,1.99-4.447,9.013C32.458,133.922,35.418,163.034,35.418,163.034Z" transform="translate(-30.88 -75.517)"/>
      <path id="Path_4168" data-name="Path 4168" d="M32.34,163.058c0,5.034,3.6,4.135,6.784,4.135s7.886.791,7.886-4.027c0-3.224-3.907-9.636-8.15-9.636C35.672,153.53,32.34,160.517,32.34,163.058Z" transform="translate(-31.194 -67.978)"/>
    </g>
    <path id="Path_4169" data-name="Path 4169" d="M46.721,170.8H33.453L30.9,98.085V83.99H51.347Z" transform="translate(762.865 418.738)" fill="#6c7286"/>
    <path id="Path_4170" data-name="Path 4170" d="M18.456,170.8H31.724l2.553-72.344V83.99H13.89Z" transform="translate(759.488 418.738)" fill="#6c7286"/>
    <rect id="Rectangle_223" data-name="Rectangle 223" width="40.834" height="3.536" transform="translate(773.377 501.098)"/>
    <path id="Path_4171" data-name="Path 4171" d="M51.4,35.782C51.828,34.919,40.49,33.9,40.49,33.9c-1.69,1.115-2.745,3-3.512,2.7l-1.81-.815s-.791-.192-.863-.18c-.036-.012-1.594-.6-1.594-.6l-3.32,1.99c-.707.108,1.606-2.948-.563-3.08,0,0-11.794.431-11.41,1.318,3.62,8.546-1.258,20.411-1.258,20.411S7.171,77.083,14.362,92.3H55.2c6.82-10.943-2-36.663-2-36.663S47.322,43.956,51.4,35.782Z" transform="translate(759.028 408.793)" fill="#1b1f4d"/>
    <path id="Path_4172" data-name="Path 4172" d="M55.884,44.423c-1.594-6.688-3.9-7.91-6.4-8.426.012-.024-4.447-.515-4.447-.527-4.063,8.174,1.8,19.86,1.8,19.86l8.905,39.875,7.707-1.45C63.435,93.755,57.478,51.123,55.884,44.423Z" transform="translate(765.387 409.104)" fill="#48af66"/>
    <path id="Path_4173" data-name="Path 4173" d="M19.4,35.01s-3.919,1.079-3.919,1.091c-2.5.515-4.794,1.726-6.4,8.426S1.53,93.846,1.53,93.846L9.237,95.3l8.905-39.875S23,43.544,19.4,35.01Z" transform="translate(757.034 409.013)" fill="#48af66"/>
    <path id="Path_4174" data-name="Path 4174" d="M34.377,85.442c0,.419-.467.755-1.031.755h-3.9c-.575,0-1.031-.336-1.031-.755V83.165c0-.419.467-.755,1.031-.755h3.9c.575,0,1.031.336,1.031.755Z" transform="translate(762.372 418.424)" fill="none" stroke="#f2a000" stroke-width="1"/>
    <path id="Path_4175" data-name="Path 4175" d="M22.68,34.113s2.1,10.7,10.427,9.924,9.145-9.924,9.145-9.924S28.793,33.526,22.68,34.113Z" transform="translate(761.233 408.783)" fill="#48af66"/>
    <path id="Path_4176" data-name="Path 4176" d="M24.38,34.295l2.265-.935s-.024.539,4.459.647l-5.717,5.082Z" transform="translate(761.57 408.686)" fill="#34834b"/>
    <path id="Path_4177" data-name="Path 4177" d="M38.376,34.295l-2.265-.935s.144.5-4.351.611l5.609,5.118Z" transform="translate(763.035 408.686)" fill="#34834b"/>
  </g>
</svg>
