<svg xmlns="http://www.w3.org/2000/svg" width="73.449" height="208.861" viewBox="0 0 73.449 208.861">
  <g id="Group_1615" data-name="Group 1615" transform="translate(-512.168 -398.429)">
    <path id="Path_7159" data-name="Path 7159" d="M68.862,166.8c0,4.667-14.474,8.45-32.331,8.45S4.2,171.467,4.2,166.8s14.474-8.449,32.331-8.449S68.862,162.144,68.862,166.8Z" transform="translate(513.059 432.041)" fill="#c3c5cb"/>
    <g id="Group_1582" data-name="Group 1582" transform="translate(527.393 398.429)">
      <path id="Path_7160" data-name="Path 7160" d="M54.553,20.936a.984.984,0,0,0-.473-.824.955.955,0,0,0,0-1.649.967.967,0,0,0-.109-1.552,1.024,1.024,0,0,0,.267-.667,1,1,0,0,0-.449-.812.992.992,0,0,0,.145-.5,1.006,1.006,0,0,0-.582-.9.948.948,0,0,0,.145-.485,1.017,1.017,0,0,0-.691-.946.878.878,0,0,0,.085-.4,1.009,1.009,0,0,0-.836-.97.878.878,0,0,0,.085-.4,1,1,0,0,0-.921-.982.979.979,0,0,0,.1-.412,1.02,1.02,0,0,0-1.043-1.006c-.012,0-.036.012-.048.012a.861.861,0,0,0,.048-.242A1.02,1.02,0,0,0,49.231,7.2a.967.967,0,0,0-.182.036.833.833,0,0,0,.061-.291A1.02,1.02,0,0,0,48.067,5.94a1.02,1.02,0,0,0-1.043-1.006,1.02,1.02,0,0,0-1.043-1.006A1.136,1.136,0,0,0,45.631,4a1.018,1.018,0,0,0-1.006-.836,1.225,1.225,0,0,0-.206.036,1.024,1.024,0,0,0-.97-.691,1.05,1.05,0,0,0-.388.073,1.036,1.036,0,0,0-.97-.691,1.529,1.529,0,0,0-.339.061,1.031,1.031,0,0,0-.97-.667.939.939,0,0,0-.485.133A1.03,1.03,0,0,0,38.951.97a1.029,1.029,0,0,0-.873-.5.975.975,0,0,0-.606.218,1.039,1.039,0,0,0-.824-.412,1.063,1.063,0,0,0-.691.267,1.049,1.049,0,0,0-.824-.424,1.027,1.027,0,0,0-.57.182.956.956,0,0,0-.715-.3,1.033,1.033,0,0,0-.279.048A1.033,1.033,0,0,0,33.29,0a1.064,1.064,0,0,0-.752.315,1,1,0,0,0-1.394.242,1.063,1.063,0,0,0-.691-.267A1.015,1.015,0,0,0,29.641.7a1.053,1.053,0,0,0-.606-.218,1.029,1.029,0,0,0-.873.5,1.046,1.046,0,0,0-.436-.1,1.027,1.027,0,0,0-.909.546,1.071,1.071,0,0,0-.485-.133,1.031,1.031,0,0,0-.97.667,1.052,1.052,0,0,0-.339-.061,1.013,1.013,0,0,0-.97.691,1.05,1.05,0,0,0-.388-.073,1.013,1.013,0,0,0-.97.691,1.225,1.225,0,0,0-.206-.036,1.028,1.028,0,0,0-1.006.836,1.136,1.136,0,0,0-.352-.073,1.027,1.027,0,0,0-1.043,1.006,1.027,1.027,0,0,0-1.043,1.006A1.027,1.027,0,0,0,18,6.958a1.03,1.03,0,0,0,.061.291.508.508,0,0,0-.182-.048,1.027,1.027,0,0,0-1.043,1.006.784.784,0,0,0,.048.242c-.012,0-.036-.012-.048-.012A1.027,1.027,0,0,0,15.8,9.444a.979.979,0,0,0,.1.412,1.018,1.018,0,0,0-.921.982,1.072,1.072,0,0,0,.085.4,1.009,1.009,0,0,0-.836.97,1.072,1.072,0,0,0,.085.4,1,1,0,0,0-.691.946.948.948,0,0,0,.145.485,1.006,1.006,0,0,0-.582.9,1.03,1.03,0,0,0,.145.5.985.985,0,0,0-.449.812,1.024,1.024,0,0,0,.267.667.967.967,0,0,0-.109,1.552.955.955,0,0,0,0,1.649.958.958,0,0,0,.061,1.685.948.948,0,0,0,.036,1.588.979.979,0,0,0,.485,1.624.938.938,0,0,0-.242.618,1.007,1.007,0,0,0,.909.982.97.97,0,0,0-.388.764,1.006,1.006,0,0,0,.9.982.951.951,0,0,0,.618,1.479.911.911,0,0,0-.061.315.989.989,0,0,0,.849.97.709.709,0,0,0-.048.23,1.02,1.02,0,0,0,1.043,1.006.709.709,0,0,0,.23-.048.986.986,0,0,0-.23.606,1.02,1.02,0,0,0,1.043,1.006,1.038,1.038,0,0,0,.279-.061.919.919,0,0,0-.036.194,1.02,1.02,0,0,0,1.043,1.006c.048,0,.085-.024.121-.024v.024a1.02,1.02,0,0,0,1.043,1.006,1.169,1.169,0,0,0,.461-.109.863.863,0,0,0-.048.255,1.02,1.02,0,0,0,1.043,1.006,1.111,1.111,0,0,0,.449-.109c0,.036-.024.073-.024.109A1.02,1.02,0,0,0,23.6,38.223a1.006,1.006,0,0,0,.57-.194,1.016,1.016,0,0,0,.994.788.988.988,0,0,0,.558-.182,1.02,1.02,0,0,0,1.03.982,1,1,0,0,0,.594-.206,1.021,1.021,0,0,0,1.831.4,1.042,1.042,0,0,0,.97.679,1.027,1.027,0,0,0,1.043-1.006c0-.048-.024-.085-.024-.133a19.758,19.758,0,0,0,2.255.133,21.449,21.449,0,0,0,2.509-.17.849.849,0,0,0-.036.17,1.039,1.039,0,0,0,2.012.327,1.021,1.021,0,0,0,1.831-.4,1.012,1.012,0,0,0,1.624-.776.988.988,0,0,0,.558.182,1.016,1.016,0,0,0,.994-.788,1.015,1.015,0,0,0,1.612-.812.354.354,0,0,0-.024-.109,1.064,1.064,0,0,0,.449.109,1.027,1.027,0,0,0,1.043-1.006.944.944,0,0,0-.048-.255.992.992,0,0,0,.461.109,1.027,1.027,0,0,0,1.043-1.006v-.024c.048,0,.085.024.121.024a1.027,1.027,0,0,0,1.043-1.006.919.919,0,0,0-.036-.194,1.15,1.15,0,0,0,.279.061A1.027,1.027,0,0,0,49.9,32.913a.986.986,0,0,0-.23-.606,1.288,1.288,0,0,0,.23.048,1.027,1.027,0,0,0,1.043-1.006.783.783,0,0,0-.048-.23,1.02,1.02,0,0,0,.849-.97,1.446,1.446,0,0,0-.061-.315.951.951,0,0,0,.618-1.479,1,1,0,0,0,.9-.982.97.97,0,0,0-.388-.764,1.007,1.007,0,0,0,.909-.982.938.938,0,0,0-.242-.618,1,1,0,0,0,.752-.958,1.024,1.024,0,0,0-.267-.667.985.985,0,0,0,.449-.812A.964.964,0,0,0,54,21.8.958.958,0,0,0,54.553,20.936Z" transform="translate(-12.56 0)" fill="#707070"/>
      <path id="Path_7161" data-name="Path 7161" d="M35.111,5.99H30.262c-16.438,0-12.353,22.56-12.353,22.56,0,.376,4.194,12.329,14.778,12.329S47.464,28.926,47.464,28.55C47.452,28.55,49.888,5.99,35.111,5.99Z" transform="translate(-11.52 1.271)" fill="#af804d"/>
      <g id="Group_1581" data-name="Group 1581" transform="translate(3.554 25.057)">
        <path id="Path_7162" data-name="Path 7162" d="M20.048,23.458c.315,1.891-1.418,5.1-2.194,4.158-.958-1.176-1.624-1.6-2.194-3.431-.752-2.425,1.212-4.085,2.182-3.334C19.308,21.991,19.733,21.567,20.048,23.458Z" transform="translate(-15.492 -20.67)" fill="#af804d"/>
        <path id="Path_7163" data-name="Path 7163" d="M40.537,23.458c-.315,1.891,1.418,5.1,2.194,4.158.958-1.176,1.624-1.6,2.194-3.431.752-2.425-1.224-4.085-2.182-3.334C41.276,21.991,40.852,21.567,40.537,23.458Z" transform="translate(-10.184 -20.67)" fill="#af804d"/>
      </g>
      <rect id="Rectangle_232" data-name="Rectangle 232" width="9.431" height="8.631" transform="translate(16.293 37.835)" fill="#af804d"/>
      <path id="Path_7164" data-name="Path 7164" d="M44.3,27.554c-1.661,2.522-5.455.4-11.771.4s-10.11,2.121-11.771-.4c-1.5-2.279-1.176-10.329-1.1-16.584-3.528,6.68-1.746,16.523-1.746,16.523,0,.315,2.958,8.8,10.183,11.5a41.161,41.161,0,0,0,4.437.242,42.35,42.35,0,0,0,4.849-.291C44.518,36.2,47.452,27.8,47.452,27.481c0,0,.97-8.983-2.037-15.614C45.512,17.977,45.73,25.384,44.3,27.554Z" transform="translate(-11.52 2.329)" fill="#707070"/>
    </g>
    <g id="Group_1584" data-name="Group 1584" transform="translate(512.168 447.125)">
      <g id="Group_1583" data-name="Group 1583" transform="translate(0 53.752)">
        <path id="Path_7165" data-name="Path 7165" d="M6.966,92.992a.891.891,0,0,1,.739,1.018L7.16,97.344a.9.9,0,0,1-1.018.739h0A.9.9,0,0,1,5.4,97.066l.546-3.334a.874.874,0,0,1,1.018-.739Z" transform="translate(1.143 -82.712)" fill="#af804d"/>
        <path id="Path_7166" data-name="Path 7166" d="M6.5,95.882A.9.9,0,0,1,7.235,96.9l-.546,3.334a.891.891,0,0,1-1.018.739h0a.9.9,0,0,1-.739-1.03l.546-3.334A.883.883,0,0,1,6.5,95.882Z" transform="translate(1.044 -82.099)" fill="#af804d"/>
        <path id="Path_7167" data-name="Path 7167" d="M5.279,92.713a.982.982,0,0,1,.812,1.14l-.667,4.134a.982.982,0,0,1-1.14.812h0a.982.982,0,0,1-.812-1.14l.667-4.134a.989.989,0,0,1,1.14-.812Z" transform="translate(0.733 -82.772)" fill="#af804d"/>
        <path id="Path_7168" data-name="Path 7168" d="M4.7,96.272a.982.982,0,0,1,.812,1.14l-.691,4.255a.982.982,0,0,1-1.14.812h0a.991.991,0,0,1-.824-1.14l.691-4.255A1.023,1.023,0,0,1,4.7,96.272Z" transform="translate(0.604 -82.016)" fill="#af804d"/>
        <path id="Path_7169" data-name="Path 7169" d="M3.528,92.452a.969.969,0,0,1,.8,1.1L3.638,97.8a.974.974,0,0,1-1.115.8h0a.974.974,0,0,1-.8-1.115L2.4,93.252a.993.993,0,0,1,1.127-.8Z" transform="translate(0.362 -82.827)" fill="#af804d"/>
        <path id="Path_7170" data-name="Path 7170" d="M2.917,96.092a.974.974,0,0,1,.8,1.115l-.57,3.528a.974.974,0,0,1-1.115.8h0a.969.969,0,0,1-.8-1.1L1.8,96.9a.974.974,0,0,1,1.115-.812Z" transform="translate(0.258 -82.054)" fill="#af804d"/>
        <path id="Path_7171" data-name="Path 7171" d="M1.867,92.162a.781.781,0,0,1,.643.9l-.558,3.419a.781.781,0,0,1-.9.642h0a.781.781,0,0,1-.643-.9L.97,92.8a.774.774,0,0,1,.9-.643Z" transform="translate(0.084 -82.888)" fill="#af804d"/>
        <path id="Path_7172" data-name="Path 7172" d="M1.37,95.1a.781.781,0,0,1,.643.9l-.461,2.861a.781.781,0,0,1-.9.642h0a.781.781,0,0,1-.643-.9l.461-2.849a.8.8,0,0,1,.9-.655Z" transform="translate(-0.001 -82.264)" fill="#af804d"/>
        <path id="Path_7173" data-name="Path 7173" d="M7.664,90.608a1.024,1.024,0,0,1,1.285.655l1.2,3.685a1.024,1.024,0,0,1-.655,1.285h0a1.014,1.014,0,0,1-1.285-.655l-1.2-3.673a1.018,1.018,0,0,1,.655-1.3Z" transform="translate(1.475 -83.226)" fill="#af804d"/>
        <path id="Path_7174" data-name="Path 7174" d="M8.638,96.039s.121-1.649.4-.63c.3,1.1,1.624-1.588,1.624-1.588A41.205,41.205,0,0,0,9.05,89.262,26.6,26.6,0,0,1,7.631,85.08l-3.552-.57S3.219,86.5,2.443,87.868.77,95.166.77,95.166Z" transform="translate(0.162 -84.51)" fill="#af804d"/>
      </g>
      <path id="Path_7175" data-name="Path 7175" d="M6.358,98.516C5.243,100.9,5.449,102.2,4.2,102h0c-1.249-.206-1.273-2.509-1.273-2.509C2.479,77.908,5.752,73.58,5.752,73.58c.255-19.481,5.94-31.434,5.94-31.434a3.7,3.7,0,0,1,3.358-1.952h0c1.249.206,4.413,2.764,4.207,4.013,0,0-2.158,23.009-6.437,30.828C11.728,77.011,13.862,82.563,6.358,98.516Z" transform="translate(0.611 -40.17)" fill="#af804d"/>
    </g>
    <g id="Group_1586" data-name="Group 1586" transform="translate(565.716 447.137)">
      <g id="Group_1585" data-name="Group 1585" transform="translate(8.229 53.728)">
        <path id="Path_7176" data-name="Path 7176" d="M54.031,92.992a.891.891,0,0,0-.739,1.018l.546,3.334a.9.9,0,0,0,1.018.739h0a.9.9,0,0,0,.739-1.018l-.546-3.334a.874.874,0,0,0-1.018-.739Z" transform="translate(-50.467 -82.7)" fill="#af804d"/>
        <path id="Path_7177" data-name="Path 7177" d="M54.5,95.882a.9.9,0,0,0-.739,1.018l.546,3.334a.9.9,0,0,0,1.018.739h0a.9.9,0,0,0,.739-1.03L55.52,96.61a.883.883,0,0,0-1.018-.727Z" transform="translate(-50.368 -82.087)" fill="#af804d"/>
        <path id="Path_7178" data-name="Path 7178" d="M55.775,92.713a.982.982,0,0,0-.812,1.14l.667,4.134a.982.982,0,0,0,1.14.812h0a.974.974,0,0,0,.812-1.14l-.667-4.134a1,1,0,0,0-1.14-.812Z" transform="translate(-50.114 -82.76)" fill="#af804d"/>
        <path id="Path_7179" data-name="Path 7179" d="M56.355,96.272a.974.974,0,0,0-.812,1.14l.691,4.255a.982.982,0,0,0,1.14.812h0a.991.991,0,0,0,.824-1.14l-.691-4.255a1.023,1.023,0,0,0-1.152-.812Z" transform="translate(-49.991 -82.004)" fill="#af804d"/>
        <path id="Path_7180" data-name="Path 7180" d="M57.522,92.452a.96.96,0,0,0-.8,1.1l.691,4.231a.974.974,0,0,0,1.115.8h0a.974.974,0,0,0,.8-1.115l-.691-4.231a.982.982,0,0,0-1.115-.788Z" transform="translate(-49.74 -82.815)" fill="#af804d"/>
        <path id="Path_7181" data-name="Path 7181" d="M58.112,96.092a.974.974,0,0,0-.8,1.115l.57,3.528a.974.974,0,0,0,1.115.8h0a.96.96,0,0,0,.8-1.1l-.57-3.528a.974.974,0,0,0-1.115-.812Z" transform="translate(-49.614 -82.042)" fill="#af804d"/>
        <path id="Path_7182" data-name="Path 7182" d="M59.094,92.162a.781.781,0,0,0-.643.9l.558,3.419a.781.781,0,0,0,.9.642h0a.781.781,0,0,0,.642-.9L59.992,92.8a.781.781,0,0,0-.9-.643Z" transform="translate(-49.372 -82.876)" fill="#af804d"/>
        <path id="Path_7183" data-name="Path 7183" d="M59.574,95.1a.781.781,0,0,0-.643.9l.461,2.849a.781.781,0,0,0,.9.643h0a.781.781,0,0,0,.643-.9l-.461-2.849a.8.8,0,0,0-.9-.642Z" transform="translate(-49.27 -82.251)" fill="#af804d"/>
        <path id="Path_7184" data-name="Path 7184" d="M53.494,90.608a1.024,1.024,0,0,0-1.285.655l-1.2,3.685a1.024,1.024,0,0,0,.655,1.285h0a1.014,1.014,0,0,0,1.285-.655l1.2-3.685a1.019,1.019,0,0,0-.655-1.285Z" transform="translate(-50.96 -83.214)" fill="#af804d"/>
        <path id="Path_7185" data-name="Path 7185" d="M53.674,96.041s-.121-1.649-.4-.63c-.3,1.1-1.624-1.588-1.624-1.588a41.206,41.206,0,0,1,1.612-4.558,26.6,26.6,0,0,0,1.418-4.182l3.564-.582s.861,1.988,1.637,3.358,1.673,7.3,1.673,7.3Z" transform="translate(-50.814 -84.5)" fill="#af804d"/>
      </g>
      <path id="Path_7186" data-name="Path 7186" d="M57.092,98.514c1.127,2.388.909,3.685,2.158,3.491h0C60.5,101.8,60.523,99.5,60.523,99.5c.449-21.578-2.837-25.906-2.837-25.906-.255-19.481-5.94-31.434-5.94-31.434A3.7,3.7,0,0,0,48.388,40.2h0c-1.249.206-4.413,2.764-4.207,4.013,0,0,2.158,23.009,6.437,30.828C51.734,77.009,49.6,82.561,57.092,98.514Z" transform="translate(-44.172 -40.18)" fill="#af804d"/>
    </g>
    <path id="Path_7187" data-name="Path 7187" d="M34.168,36.26,12.42,41.012s3.6,5.067,3.6,9.068l4.243,44.757c0,4,8.389-2.861,13.044-2.861h.849V36.26Z" transform="translate(514.804 406.125)" fill="#af804d"/>
    <path id="Path_7188" data-name="Path 7188" d="M33.241,50.38h-.849c-4.655,0-7.516,12.511-7.516,16.5,0,0-8.522,16.9-8.074,30.464s4.485,5.467,9.153,5.467h7.286V50.38Z" transform="translate(515.73 409.123)" fill="#af804d"/>
    <g id="Group_1587" data-name="Group 1587" transform="translate(532.461 500.974)">
      <path id="Path_7189" data-name="Path 7189" d="M28.39,134.463c-5.164,7.358.109,2.194-3.382,2.194h0c-3.479,0-1.127,8.91-4.885-2.194s-3.37-43.569-3.37-43.569c0-3.479.97-6.3,4.449-6.3h0c3.479,0,11.4,2.243,11.4,5.722C32.608,90.312,33.554,127.1,28.39,134.463Z" transform="translate(-16.741 -84.59)"/>
      <path id="Path_7190" data-name="Path 7190" d="M27.869,164.065c0,3.479.727,3.128-2.752,3.128h0c-3.479,0-4.243-.412-4.243-3.891,0,0-6.752-26.44-1.2-37.508,3.673-7.322,1.043-8.474,4.522-8.474h0c3.479,0,2.618,1.976,4.4,8.934C30.96,135.5,27.869,164.065,27.869,164.065Z" transform="translate(-16.583 -77.643)"/>
      <path id="Path_7191" data-name="Path 7191" d="M31.794,164.283c0,5.164-3.7,4.243-6.958,4.243s-8.086.812-8.086-4.134c0-3.091,4.049-9.892,8.365-9.892C28.388,154.5,31.794,161.677,31.794,164.283Z" transform="translate(-16.739 -69.75)"/>
    </g>
    <path id="Path_7192" data-name="Path 7192" d="M30.27,36.26l21.554,4.752s-3.419,5.067-3.419,9.068L44.163,94.837c0,4-8.389-2.861-13.044-2.861H30.27V36.26Z" transform="translate(518.593 406.125)" fill="#af804d"/>
    <path id="Path_7193" data-name="Path 7193" d="M30.272,50.38h.849c4.655,0,7.5,12.511,7.5,16.5,0,0,8.522,16.9,8.074,30.464s-4.485,5.467-9.153,5.467H30.26V50.38Z" transform="translate(518.59 409.123)" fill="#af804d"/>
    <g id="Group_1588" data-name="Group 1588" transform="translate(549.437 500.974)">
      <path id="Path_7194" data-name="Path 7194" d="M35.031,134.463c5.164,7.358-.109,2.194,3.382,2.194h0c3.479,0,1.127,8.91,4.885-2.194s3.37-43.569,3.37-43.569c0-3.479-.97-6.3-4.449-6.3h0c-3.479,0-11.4,2.243-11.4,5.722C30.8,90.312,29.866,127.1,35.031,134.463Z" transform="translate(-30.744 -84.59)"/>
      <path id="Path_7195" data-name="Path 7195" d="M34.71,164.344c0,3.479-.558,2.849,2.922,2.849h0c3.479,0,4.146-.436,4.146-3.916,0,0,7.007-25.494,1.3-37.483-3.528-7.395-1.043-8.474-4.522-8.474h0c-3.479,0-2.618,1.976-4.4,8.934C31.777,135.5,34.71,164.344,34.71,164.344Z" transform="translate(-30.217 -77.643)"/>
      <path id="Path_7196" data-name="Path 7196" d="M31.68,163.944c0,4.982,3.564,4.1,6.716,4.1s7.807.788,7.807-3.988c0-3.2-3.879-9.553-8.074-9.553C34.977,154.5,31.68,161.422,31.68,163.944Z" transform="translate(-30.545 -69.75)"/>
    </g>
    <path id="Path_7197" data-name="Path 7197" d="M45.945,172.388H32.8L30.27,100.343V86.39h16.9Z" transform="translate(518.593 416.766)" fill="#1b1f4d"/>
    <path id="Path_7198" data-name="Path 7198" d="M17.544,172.388H30.7l2.534-71.669V86.39H16.32Z" transform="translate(515.631 416.766)" fill="#1b1f4d"/>
    <rect id="Rectangle_233" data-name="Rectangle 233" width="33.81" height="3.503" transform="translate(531.951 501.532)"/>
    <g id="Group_1592" data-name="Group 1592" transform="translate(513.986 443.246)">
      <g id="Group_1590" data-name="Group 1590" transform="translate(16.45)">
        <path id="Path_7199" data-name="Path 7199" d="M60.736,48.135c-1.588-6.631-3.855-7.831-6.34-8.34.012-.024-4.4-.509-4.4-.533-3.9,7.855,1.418,18.96,1.758,19.639-.339-.691-5.661-11.8-1.758-19.639.424-.861-10.8-1.855-10.8-1.855-1.673,1.1-4.934-.073-5.7-.364V36.97s-.048.012-.121.024l-.048-.024v.024a31.517,31.517,0,0,1-5.7.412s-11.674.436-11.31,1.309c3.588,8.474-1.249,20.221-1.249,20.221l1.515,36.319H50.4l1.37-36.319,8.825,39.508,7.637-1.43S62.324,54.778,60.736,48.135Z" transform="translate(-15.07 -36.97)" fill="#48af66"/>
      </g>
      <g id="Group_1591" data-name="Group 1591" transform="translate(0 1.746)">
        <path id="Path_7200" data-name="Path 7200" d="M19.2,38.41s-3.879,1.067-3.879,1.079c-2.485.509-4.752,1.709-6.34,8.34S1.5,96.708,1.5,96.708l7.637,1.43,8.825-39.508C17.95,58.631,22.763,46.872,19.2,38.41Z" transform="translate(-1.5 -38.41)" fill="#48af66"/>
      </g>
    </g>
    <path id="Path_7201" data-name="Path 7201" d="M23.88,37.721l2.243-.921s1.055.1,5.492.206l-6.74,5.467Z" transform="translate(517.236 406.24)" fill="#34834b"/>
    <path id="Path_7202" data-name="Path 7202" d="M37.864,37.721,35.622,36.8s-1.055.1-5.492.206l6.74,5.467Z" transform="translate(518.563 406.24)" fill="#34834b"/>
    <path id="Path_7203" data-name="Path 7203" d="M35.3,88.937c0,2.279-4.279,4.728-4.279,4.728s-4.291-2.449-4.291-4.728l1.455-34.465c0-2.279.461-14.693,2.825-14.693h0c2.364,0,3.358,12.2,3.358,14.474Z" transform="translate(517.841 406.873)" fill="#1b1f4d"/>
    <path id="Path_7204" data-name="Path 7204" d="M34.729,39.431c0,1.358-1.721,3.685-3.079,3.685h-1.3c-1.358,0-3.213-2.328-3.213-3.685h0A2.463,2.463,0,0,1,29.6,36.97h2.667a2.463,2.463,0,0,1,2.461,2.461Z" transform="translate(517.928 406.276)" fill="#1b1f4d"/>
    <path id="Path_7205" data-name="Path 7205" d="M33.732,87.846c0,.412-.461.752-1.018.752H28.858c-.57,0-1.018-.339-1.018-.752V85.592c0-.412.461-.752,1.018-.752h3.855c.57,0,1.018.339,1.018.752Z" transform="translate(518.077 416.437)" fill="none" stroke="#f2a000" stroke-width="1"/>
  </g>
</svg>
