<svg xmlns="http://www.w3.org/2000/svg" width="70.735" height="204.778" viewBox="0 0 70.735 204.778">
  <g id="Group_1614" data-name="Group 1614" transform="translate(-280.827 -402.064)">
    <path id="Path_7108" data-name="Path 7108" d="M70.735,164.737c0,5.1-15.839,9.237-35.368,9.237S0,169.841,0,164.737,15.839,155.5,35.368,155.5,70.735,159.633,70.735,164.737Z" transform="translate(280.827 432.867)" fill="#c3c5cb"/>
    <g id="Group_1568" data-name="Group 1568" transform="translate(297.361 402.064)">
      <path id="Path_7109" data-name="Path 7109" d="M45.6,35.739H19a5.2,5.2,0,0,1-5.2-5.2V18.5A18.494,18.494,0,0,1,32.3,0h0A18.494,18.494,0,0,1,50.8,18.5V30.539A5.2,5.2,0,0,1,45.6,35.739Z" transform="translate(-13.8)" fill="#929292"/>
      <rect id="Rectangle_231" data-name="Rectangle 231" width="8.387" height="9.141" transform="translate(14.305 34.002)" fill="#f8dab6"/>
      <path id="Path_7110" data-name="Path 7110" d="M34.234,3.53h-4.78c-16.174,0-12.161,22.213-12.161,22.213,0,.371,4.133,12.137,14.545,12.137S46.395,26.1,46.395,25.743C46.395,25.743,48.779,3.53,34.234,3.53Z" transform="translate(-13.196 0.699)" fill="#f8dab6"/>
      <g id="Group_1567" data-name="Group 1567" transform="translate(1.312 21.733)">
        <path id="Path_7111" data-name="Path 7111" d="M19.382,20.9c.312,1.857-1.39,5.032-2.157,4.085-.946-1.162-1.605-1.569-2.169-3.379-.731-2.384,1.2-4.026,2.157-3.283C18.651,19.458,19.07,19.039,19.382,20.9Z" transform="translate(-14.895 -18.139)" fill="#f8dab6"/>
        <path id="Path_7112" data-name="Path 7112" d="M39.846,20.9c-.312,1.857,1.4,5.032,2.157,4.085A8.073,8.073,0,0,0,44.159,21.6c.743-2.384-1.2-4.026-2.145-3.283C40.577,19.458,40.158,19.039,39.846,20.9Z" transform="translate(-9.96 -18.139)" fill="#f8dab6"/>
      </g>
      <path id="Path_7113" data-name="Path 7113" d="M44.661,5.963c1.737.863.851,1.845.851,3.582,0,5.308-12.52,7.62-21.35,6.47-4.972-.647-8.842,3.5-8.842,3.5S16.9-7.827,44.661,5.963Z" transform="translate(-13.499 0.411)" fill="#929292"/>
    </g>
    <g id="Group_1572" data-name="Group 1572" transform="translate(288.034 442.212)">
      <path id="Path_7114" data-name="Path 7114" d="M31.585,33.51,17.22,36.29s4.181,1.725,4.181,6.1L25.487,83.9c0,4.373.072,7.919,5.176,7.919H31.6V33.51Z" transform="translate(-3.796 -33.51)" fill="#f8dab6"/>
      <path id="Path_7115" data-name="Path 7115" d="M31.789,46.93h-.935c-5.1,0-8.207,13.682-8.207,18.043,0,0-6.925,18.475-6.434,33.331s2.5,5.978,7.608,5.978h7.967Z" transform="translate(-4 -30.852)" fill="#f8dab6"/>
      <g id="Group_1570" data-name="Group 1570" transform="translate(0 2.557)">
        <g id="Group_1569" data-name="Group 1569" transform="translate(0 54.017)">
          <path id="Path_7116" data-name="Path 7116" d="M12.427,88.572a.814.814,0,0,1,.671.935l-.491,3.043a.814.814,0,0,1-.935.671h0A.814.814,0,0,1,11,92.286l.491-3.043a.827.827,0,0,1,.935-.671Z" transform="translate(-5.029 -79.179)" fill="#f8dab6"/>
          <path id="Path_7117" data-name="Path 7117" d="M12,91.242a.814.814,0,0,1,.671.935l-.491,3.043a.8.8,0,0,1-.935.671h0a.814.814,0,0,1-.671-.935l.491-3.043A.814.814,0,0,1,12,91.242Z" transform="translate(-5.115 -78.65)" fill="#f8dab6"/>
          <path id="Path_7118" data-name="Path 7118" d="M10.875,88.312a.9.9,0,0,1,.743,1.03l-.611,3.774a.889.889,0,0,1-1.03.743h0a.913.913,0,0,1-.755-1.03l.611-3.774a.907.907,0,0,1,1.042-.743Z" transform="translate(-5.382 -79.231)" fill="#f8dab6"/>
          <path id="Path_7119" data-name="Path 7119" d="M10.347,91.6a.889.889,0,0,1,.743,1.03l-.623,3.87a.9.9,0,0,1-1.042.743h0a.9.9,0,0,1-.743-1.03l.623-3.87a.91.91,0,0,1,1.042-.743Z" transform="translate(-5.489 -78.578)" fill="#f8dab6"/>
          <path id="Path_7120" data-name="Path 7120" d="M9.252,88.082a.881.881,0,0,1,.731,1.006l-.623,3.858a.878.878,0,0,1-1.018.731h0a.876.876,0,0,1-.719-1.018L8.245,88.8a.864.864,0,0,1,1.006-.719Z" transform="translate(-5.699 -79.276)" fill="#f8dab6"/>
          <path id="Path_7121" data-name="Path 7121" d="M8.7,91.442a.872.872,0,0,1,.731,1.006L8.9,95.671a.878.878,0,0,1-1.018.731h0A.872.872,0,0,1,7.152,95.4l.515-3.223a.893.893,0,0,1,1.03-.731Z" transform="translate(-5.792 -78.611)" fill="#f8dab6"/>
          <path id="Path_7122" data-name="Path 7122" d="M7.721,87.811a.7.7,0,0,1,.587.815l-.5,3.115a.7.7,0,0,1-.827.587h0a.715.715,0,0,1-.587-.815l.5-3.127a.726.726,0,0,1,.827-.575Z" transform="translate(-5.942 -79.329)" fill="#f8dab6"/>
          <path id="Path_7123" data-name="Path 7123" d="M7.267,90.521a.724.724,0,0,1,.6.815l-.431,2.612a.715.715,0,0,1-.815.587h0a.724.724,0,0,1-.6-.815l.431-2.6a.715.715,0,0,1,.815-.6Z" transform="translate(-6.015 -78.792)" fill="#f8dab6"/>
          <path id="Path_7124" data-name="Path 7124" d="M13.076,86.377a.931.931,0,0,1,1.174.6l1.1,3.355a.931.931,0,0,1-.6,1.174h0a.931.931,0,0,1-1.174-.6l-1.1-3.355a.941.941,0,0,1,.6-1.174Z" transform="translate(-4.744 -79.62)" fill="#f8dab6"/>
          <path id="Path_7125" data-name="Path 7125" d="M13.919,91.261s.108-1.51.359-.575c.276,1.006,1.486-1.45,1.486-1.45a37.8,37.8,0,0,0-1.474-4.157A26.085,26.085,0,0,1,13,81.257L9.749,80.73s-.791,1.821-1.5,3.067S6.73,90.458,6.73,90.458Z" transform="translate(-5.874 -80.73)" fill="#f8dab6"/>
        </g>
        <path id="Path_7126" data-name="Path 7126" d="M12.162,94.022c-.8,2.768-.994,4.038-2.36,3.81h0c-1.366-.228-1.4-2.744-1.4-2.744,2.336-24.573,9.082-57.329,9.082-57.329a2.523,2.523,0,0,1,2.875-2.085h0c1.366.228,4.816,3.019,4.6,4.4C24.97,40.072,17.194,76.865,12.162,94.022Z" transform="translate(-5.543 -35.644)" fill="#f8dab6"/>
      </g>
      <g id="Group_1571" data-name="Group 1571" transform="translate(14.179 60.42)">
        <path id="Path_7127" data-name="Path 7127" d="M28.586,164.987c0,4.181-1.593,3.331-4.229,3.331s-4.637.216-4.637-3.786c0-3.834,2.216-7.572,4.864-7.572S28.586,162.879,28.586,164.987Z" transform="translate(-17.48 -69.475)" fill="#1a1f2a"/>
        <path id="Path_7128" data-name="Path 7128" d="M28.489,138.477c-5.655,8.039,1.078,2.4-2.732,2.4h0c-3.81,0,1.018,9.752-3.091-2.4S17.85,90.829,17.85,90.829c0-3.81,1.054-6.889,4.864-6.889h0c3.81,0,10.064,2.444,10.064,6.254C32.778,90.182,34.144,130.426,28.489,138.477Z" transform="translate(-17.85 -83.94)" fill="#f8dab6"/>
        <path id="Path_7129" data-name="Path 7129" d="M26.287,164.242c0,3.81,3.582,7.572-2.228,7.548h0c-4.84.419-2.851-3.822-2.851-7.632,0,0-2.8-24.621.671-34.745,2.9-8.482-2.4-9.273,1.414-9.273h0c3.81,0,3.187,2.157,5.14,9.764C31.019,140.04,26.287,164.242,26.287,164.242Z" transform="translate(-17.397 -76.769)" fill="#f8dab6"/>
      </g>
    </g>
    <g id="Group_1576" data-name="Group 1576" transform="translate(314.308 442.212)">
      <path id="Path_7130" data-name="Path 7130" d="M29.17,33.51l14.365,2.78s-4.181,1.725-4.181,6.1L35.28,83.9c0,4.373-.072,7.919-5.176,7.919H29.17V33.51Z" transform="translate(-27.702 -33.51)" fill="#f8dab6"/>
      <path id="Path_7131" data-name="Path 7131" d="M29.17,46.93H30.1c5.1,0,8.207,13.682,8.207,18.043,0,0,6.925,18.475,6.434,33.331s-2.5,5.978-7.608,5.978H29.17Z" transform="translate(-27.702 -30.852)" fill="#f8dab6"/>
      <g id="Group_1574" data-name="Group 1574" transform="translate(9.821 2.557)">
        <g id="Group_1573" data-name="Group 1573" transform="translate(8.783 54.017)">
          <path id="Path_7132" data-name="Path 7132" d="M46.293,88.572a.814.814,0,0,0-.671.935l.491,3.043a.808.808,0,0,0,.923.671h0a.814.814,0,0,0,.671-.935l-.491-3.043a.784.784,0,0,0-.923-.671Z" transform="translate(-43.049 -79.179)" fill="#f8dab6"/>
          <path id="Path_7133" data-name="Path 7133" d="M46.733,91.242a.814.814,0,0,0-.671.935l.491,3.043a.808.808,0,0,0,.923.671h0a.805.805,0,0,0,.671-.935l-.479-3.043a.814.814,0,0,0-.935-.671Z" transform="translate(-42.962 -78.65)" fill="#f8dab6"/>
          <path id="Path_7134" data-name="Path 7134" d="M47.9,88.312a.9.9,0,0,0-.743,1.03l.611,3.774a.9.9,0,0,0,1.042.743h0a.9.9,0,0,0,.743-1.03l-.611-3.774a.9.9,0,0,0-1.042-.743Z" transform="translate(-42.744 -79.231)" fill="#f8dab6"/>
          <path id="Path_7135" data-name="Path 7135" d="M48.445,91.6a.889.889,0,0,0-.743,1.03l.623,3.87a.9.9,0,0,0,1.042.743h0a.9.9,0,0,0,.743-1.03l-.635-3.87a.911.911,0,0,0-1.03-.743Z" transform="translate(-42.637 -78.578)" fill="#f8dab6"/>
          <path id="Path_7136" data-name="Path 7136" d="M49.523,88.082a.872.872,0,0,0-.731,1.006l.623,3.858a.878.878,0,0,0,1.018.731h0a.884.884,0,0,0,.731-1.018L50.541,88.8a.882.882,0,0,0-1.018-.719Z" transform="translate(-42.422 -79.276)" fill="#f8dab6"/>
          <path id="Path_7137" data-name="Path 7137" d="M50.063,91.442a.872.872,0,0,0-.731,1.006l.527,3.223a.884.884,0,0,0,1.018.731h0a.881.881,0,0,0,.731-1.006l-.527-3.223a.875.875,0,0,0-1.018-.731Z" transform="translate(-42.315 -78.611)" fill="#f8dab6"/>
          <path id="Path_7138" data-name="Path 7138" d="M50.978,87.811a.715.715,0,0,0-.587.815l.5,3.115a.7.7,0,0,0,.827.587h0a.715.715,0,0,0,.587-.815l-.5-3.127a.726.726,0,0,0-.827-.575Z" transform="translate(-42.104 -79.329)" fill="#f8dab6"/>
          <path id="Path_7139" data-name="Path 7139" d="M51.42,90.521a.724.724,0,0,0-.6.815l.419,2.6a.715.715,0,0,0,.815.587h0a.715.715,0,0,0,.587-.815l-.407-2.588a.715.715,0,0,0-.815-.6Z" transform="translate(-42.018 -78.792)" fill="#f8dab6"/>
          <path id="Path_7140" data-name="Path 7140" d="M45.794,86.377a.931.931,0,0,0-1.174.6l-1.1,3.355a.931.931,0,0,0,.6,1.174h0a.936.936,0,0,0,1.174-.6l1.1-3.355a.941.941,0,0,0-.6-1.174Z" transform="translate(-43.473 -79.62)" fill="#f8dab6"/>
          <path id="Path_7141" data-name="Path 7141" d="M45.957,91.261s-.108-1.51-.371-.575c-.276,1.006-1.486-1.45-1.486-1.45a37.8,37.8,0,0,1,1.474-4.157,24.491,24.491,0,0,0,1.294-3.822l3.247-.527s.779,1.821,1.486,3.067,1.534,6.661,1.534,6.661Z" transform="translate(-43.348 -80.73)" fill="#f8dab6"/>
        </g>
        <path id="Path_7142" data-name="Path 7142" d="M48.947,94.022c.815,2.768.994,4.038,2.36,3.81h0c1.366-.228,1.4-2.744,1.4-2.744C50.373,70.516,43.64,37.76,43.64,37.76a2.529,2.529,0,0,0-2.887-2.085h0c-1.366.228-4.816,3.019-4.6,4.4C36.152,40.072,43.927,76.865,48.947,94.022Z" transform="translate(-36.142 -35.644)" fill="#f8dab6"/>
      </g>
      <g id="Group_1575" data-name="Group 1575" transform="translate(0 60.42)">
        <path id="Path_7143" data-name="Path 7143" d="M31.27,164.987c0,4.181,1.581,3.331,4.229,3.331s4.637.216,4.637-3.786c0-3.834-2.216-7.572-4.852-7.572C32.624,156.96,31.27,162.879,31.27,164.987Z" transform="translate(-27.286 -69.475)" fill="#1a1f2a"/>
        <path id="Path_7144" data-name="Path 7144" d="M32.384,138.477c5.655,8.039-1.078,2.4,2.732,2.4h0c3.81,0-1.018,9.752,3.091-2.4s4.816-47.648,4.816-47.648c0-3.81-1.066-6.889-4.864-6.889h0c-3.81,0-10.064,2.444-10.064,6.254C28.083,90.182,26.729,130.426,32.384,138.477Z" transform="translate(-27.945 -83.94)" fill="#f8dab6"/>
        <path id="Path_7145" data-name="Path 7145" d="M33.59,164.242c0,3.81-3.582,7.572,2.228,7.548h0c4.852.419,2.863-3.822,2.863-7.632,0,0,2.792-24.621-.671-34.745-2.9-8.482,2.4-9.273-1.414-9.273h0c-3.81,0-3.187,2.157-5.128,9.764C28.869,140.04,33.59,164.242,33.59,164.242Z" transform="translate(-27.401 -76.769)" fill="#f8dab6"/>
      </g>
    </g>
    <path id="Path_7146" data-name="Path 7146" d="M17.246,74.24c-2.049,10.711-1.174,18.582-1.869,30.719-.779,13.766,0,28.155,0,28.155h17.2V74.24Z" transform="translate(283.805 416.77)" fill="#1b1f4d"/>
    <path id="Path_7147" data-name="Path 7147" d="M22.019,35.156s-6.218-.875-6.446,6.206L8.6,91.023l5.559,1.653s9.022-43.407,9.261-44.269A18.8,18.8,0,0,0,22.019,35.156Z" transform="translate(282.531 409.021)" fill="#48af66"/>
    <path id="Path_7148" data-name="Path 7148" d="M16.78,82.734H32.235V42.6s-5.511-.06-9.92-7.788l-1.917.419a29.382,29.382,0,0,1,1.174,8.518c.036,1.737-.228,5.6-.228,5.6a74.818,74.818,0,0,1,.935,9.717c.24,5.775-2.169,9.693-4.385,18.534C17.439,79.391,17.08,81.092,16.78,82.734Z" transform="translate(284.151 408.959)" fill="#1b1f4d"/>
    <path id="Path_7149" data-name="Path 7149" d="M32.3,78.54H16.45l.923-5.26H32.3Z" transform="translate(284.086 416.58)"/>
    <path id="Path_7150" data-name="Path 7150" d="M24.682,34.35c-1.066.228-.719.168-2.169.539l-1.917.419a37.473,37.473,0,0,0-.515,8.363,28.569,28.569,0,0,0,1.462,5.751s-1.2,19.409-3.427,28.263c-.455,1.8-2.276,9.117-2.276,12.6h10.4l1.869-37.273Z" transform="translate(283.965 408.868)" fill="#48af66"/>
    <path id="Path_7151" data-name="Path 7151" d="M23.581,34.35l-2.181.539.383,7.907L24.4,45.648l-1.15,3.774L27.007,53Z" transform="translate(285.066 408.868)" fill="#34834b"/>
    <path id="Path_7152" data-name="Path 7152" d="M44.036,74.24c2.049,10.711,1.174,18.582,1.869,30.719.791,13.766,0,28.155,0,28.155H28.7V74.24Z" transform="translate(286.513 416.77)" fill="#1b1f4d"/>
    <path id="Path_7153" data-name="Path 7153" d="M38.916,35.156s6.218-.875,6.446,6.206l6.973,49.661-5.547,1.653s-9.022-43.407-9.273-44.269A18.8,18.8,0,0,1,38.916,35.156Z" transform="translate(288.134 409.021)" fill="#48af66"/>
    <path id="Path_7154" data-name="Path 7154" d="M44.155,82.734H28.7V42.6s5.511-.06,9.908-7.788l1.917.419a29.382,29.382,0,0,0-1.174,8.518c-.036,1.737.228,5.6.228,5.6a72.239,72.239,0,0,0-.935,9.717c-.252,5.775,2.157,9.693,4.385,18.534C43.5,79.391,43.856,81.092,44.155,82.734Z" transform="translate(286.513 408.959)" fill="#1b1f4d"/>
    <path id="Path_7155" data-name="Path 7155" d="M28.7,78.54H44.551l-.923-5.26H28.7Z" transform="translate(286.513 416.58)"/>
    <path id="Path_7156" data-name="Path 7156" d="M35.727,34.35c1.066.228.731.168,2.169.539l1.917.419s1.258,2.708,1.138,8.363c-.036,1.737-2.073,5.751-2.073,5.751s1.569,19.409,3.8,28.263c.455,1.8,2.276,9.117,2.276,12.6H34.169L32.3,53.016Z" transform="translate(287.226 408.868)" fill="#48af66"/>
    <path id="Path_7157" data-name="Path 7157" d="M35.725,34.35l2.181.539L37.522,42.8l-2.6,2.851,1.126,3.774L32.31,53Z" transform="translate(287.228 408.868)" fill="#34834b"/>
    <ellipse id="Ellipse_24" data-name="Ellipse 24" cx="3.75" cy="3.75" rx="3.75" ry="3.75" transform="translate(305.652 423.042)" fill="none" stroke="#48af66" stroke-width="1"/>
    <ellipse id="Ellipse_25" data-name="Ellipse 25" cx="3.75" cy="3.75" rx="3.75" ry="3.75" transform="translate(318.112 423.042)" fill="none" stroke="#48af66" stroke-width="1"/>
    <path id="Path_7158" data-name="Path 7158" d="M26.97,20.868a4.05,4.05,0,0,1,2.552-1.378,3.589,3.589,0,0,1,2.42,1.378" transform="translate(286.17 405.925)" fill="none" stroke="#48af66" stroke-width="1"/>
    <line id="Line_24" data-name="Line 24" y1="3.343" x2="4.936" transform="translate(325.612 423.45)" fill="none" stroke="#48af66" stroke-linecap="round" stroke-width="1"/>
    <line id="Line_25" data-name="Line 25" x1="4.649" y1="3.51" transform="translate(301.003 423.282)" fill="none" stroke="#48af66" stroke-linecap="round" stroke-width="1"/>
  </g>
</svg>
