<svg xmlns="http://www.w3.org/2000/svg" width="61.236" height="33.992" viewBox="0 0 61.236 33.992">
  <g id="Group_1617" data-name="Group 1617" transform="translate(-368.209 -574.997)">
    <g id="Group_1612" data-name="Group 1612" transform="translate(368.209 582.548)">
      <g id="Group_1066" data-name="Group 1066" transform="translate(0 10.464)">
        <path id="Path_4684" data-name="Path 4684" d="M103.408,132c-16.912,0-30.636-4.675-30.648-10.464v5.5c.012,5.789,13.736,10.464,30.648,10.464S134.02,132.8,134,127.022v-5.5C134.008,127.3,120.32,132,103.408,132Z" transform="translate(-72.76 -121.52)" fill="#f0b61e"/>
      </g>
      <g id="Group_1067" data-name="Group 1067">
        <path id="Path_4685" data-name="Path 4685" d="M103.348,112.79c-16.912,0-30.612,4.7-30.588,10.476s13.736,10.464,30.648,10.464,30.612-4.7,30.588-10.476S120.26,112.79,103.348,112.79Z" transform="translate(-72.76 -112.79)" fill="#fff33e"/>
      </g>
      <g id="Group_1068" data-name="Group 1068" transform="translate(9.996 3.416)">
        <path id="Path_4686" data-name="Path 4686" d="M101.7,115.64c-11.387,0-20.616,3.164-20.6,7.06s9.253,7.048,20.64,7.048,20.616-3.164,20.6-7.06S113.09,115.64,101.7,115.64Z" transform="translate(-81.1 -115.64)" fill="#f0b61e"/>
      </g>
      <g id="Group_1069" data-name="Group 1069" transform="translate(10.991 4.063)">
        <path id="Path_4687" data-name="Path 4687" d="M101.827,116.18c-10.991,0-19.9,2.973-19.9,6.64s8.93,6.628,19.921,6.628,19.9-2.973,19.9-6.64S112.83,116.168,101.827,116.18Z" transform="translate(-81.93 -116.18)" fill="#fff33e"/>
      </g>
      <g id="Group_1071" data-name="Group 1071" transform="translate(0.503 12.082)">
        <g id="Group_1070" data-name="Group 1070">
          <path id="Path_4688" data-name="Path 4688" d="M89.8,135.272l.3.036v-5.5l-.3-.036Z" transform="translate(-69.879 -121.5)" fill="#e39408"/>
          <path id="Path_4689" data-name="Path 4689" d="M88.79,135.142l.3.036v-5.5l-.3-.036Z" transform="translate(-70.08 -121.526)" fill="#e39408"/>
          <path id="Path_4690" data-name="Path 4690" d="M86.6,134.8c.1.012.2.036.3.048v-5.5c-.1-.012-.2-.036-.3-.048Z" transform="translate(-70.515 -121.593)" fill="#e39408"/>
          <path id="Path_4691" data-name="Path 4691" d="M85.59,134.612c.1.024.2.036.3.06v-5.5c-.1-.024-.2-.036-.3-.06Z" transform="translate(-70.715 -121.631)" fill="#e39408"/>
          <path id="Path_4692" data-name="Path 4692" d="M87.7,134.982c.1.012.2.036.3.048v-5.5c-.1-.012-.2-.036-.3-.048Z" transform="translate(-70.296 -121.557)" fill="#e39408"/>
          <path id="Path_4693" data-name="Path 4693" d="M91.91,135.492c.1.012.2.012.3.024v-5.5c-.1-.012-.192-.012-.3-.024Z" transform="translate(-69.46 -121.456)" fill="#e39408"/>
          <path id="Path_4694" data-name="Path 4694" d="M93.05,135.582c.1.012.2.012.3.024v-5.5c-.1-.012-.2-.012-.3-.024Z" transform="translate(-69.234 -121.438)" fill="#e39408"/>
          <path id="Path_4695" data-name="Path 4695" d="M98.75,135.762h.3v-5.5h-.3Z" transform="translate(-68.102 -121.402)" fill="#e39408"/>
          <path id="Path_4696" data-name="Path 4696" d="M96.6,135.752a2.51,2.51,0,0,1,.3.012v-5.5a2.5,2.5,0,0,1-.3-.012Z" transform="translate(-68.529 -121.404)" fill="#e39408"/>
          <path id="Path_4697" data-name="Path 4697" d="M99.76,135.754a2.507,2.507,0,0,0,.3-.012v-5.5a2.507,2.507,0,0,0-.3.012Z" transform="translate(-67.901 -121.406)" fill="#e39408"/>
          <path id="Path_4698" data-name="Path 4698" d="M95.37,135.712c.1,0,.2.012.3.012v-5.5c-.1,0-.2-.012-.3-.012Z" transform="translate(-68.773 -121.412)" fill="#e39408"/>
          <path id="Path_4699" data-name="Path 4699" d="M94.15,135.652c.1,0,.2.012.3.012v-5.5c-.1,0-.2-.012-.3-.012Z" transform="translate(-69.015 -121.424)" fill="#e39408"/>
          <path id="Path_4700" data-name="Path 4700" d="M97.61,135.762h.3v-5.5h-.3Z" transform="translate(-68.328 -121.402)" fill="#e39408"/>
          <path id="Path_4701" data-name="Path 4701" d="M75.04,130.642c.1.072.2.144.3.216v-5.5c-.108-.072-.2-.144-.3-.216Z" transform="translate(-72.811 -122.419)" fill="#e39408"/>
          <path id="Path_4702" data-name="Path 4702" d="M76.05,131.322c.1.06.2.12.3.18V126c-.108-.06-.2-.12-.3-.18Z" transform="translate(-72.61 -122.284)" fill="#e39408"/>
          <path id="Path_4703" data-name="Path 4703" d="M77.15,131.932c.1.048.2.1.3.156v-5.5a2.356,2.356,0,0,1-.3-.156Z" transform="translate(-72.392 -122.163)" fill="#e39408"/>
          <path id="Path_4704" data-name="Path 4704" d="M73.18,128.622a4.14,4.14,0,0,0,.3.491v-5.5a5.4,5.4,0,0,1-.3-.491Z" transform="translate(-73.18 -122.82)" fill="#e39408"/>
          <path id="Path_4705" data-name="Path 4705" d="M78.2,132.422c.1.048.2.084.3.132v-5.5c-.108-.048-.2-.084-.3-.132Z" transform="translate(-72.183 -122.066)" fill="#e39408"/>
          <path id="Path_4706" data-name="Path 4706" d="M74.03,124.25v5.5l.3.3v-5.5A3.537,3.537,0,0,1,74.03,124.25Z" transform="translate(-73.011 -122.596)" fill="#e39408"/>
          <path id="Path_4707" data-name="Path 4707" d="M84.49,134.382l.3.072v-5.5l-.3-.072Z" transform="translate(-70.934 -121.676)" fill="#e39408"/>
          <path id="Path_4708" data-name="Path 4708" d="M79.26,132.852a3.119,3.119,0,0,1,.3.12v-5.5a3.12,3.12,0,0,1-.3-.12Z" transform="translate(-71.973 -121.98)" fill="#e39408"/>
          <path id="Path_4709" data-name="Path 4709" d="M82.34,133.852c.1.024.2.06.3.084v-5.5c-.1-.024-.2-.06-.3-.084Z" transform="translate(-71.361 -121.782)" fill="#e39408"/>
          <path id="Path_4710" data-name="Path 4710" d="M83.48,134.142l.3.072v-5.5l-.3-.072Z" transform="translate(-71.134 -121.724)" fill="#e39408"/>
          <path id="Path_4711" data-name="Path 4711" d="M81.37,133.572c.1.036.2.06.3.1v-5.5c-.1-.036-.2-.06-.3-.1Z" transform="translate(-71.554 -121.837)" fill="#e39408"/>
          <path id="Path_4712" data-name="Path 4712" d="M80.19,133.192c.1.036.2.072.3.108v-5.5c-.1-.036-.2-.072-.3-.108Z" transform="translate(-71.788 -121.913)" fill="#e39408"/>
          <path id="Path_4713" data-name="Path 4713" d="M90.9,135.392l.3.036v-5.5l-.3-.036Z" transform="translate(-69.661 -121.476)" fill="#e39408"/>
          <path id="Path_4714" data-name="Path 4714" d="M117.52,132.811c.108-.036.2-.084.3-.12v-5.5c-.1.036-.2.084-.3.12Z" transform="translate(-64.374 -122.012)" fill="#e39408"/>
          <path id="Path_4715" data-name="Path 4715" d="M116.63,133.139c.1-.036.2-.072.3-.108v-5.5c-.1.036-.2.072-.3.108Z" transform="translate(-64.551 -121.945)" fill="#e39408"/>
          <path id="Path_4716" data-name="Path 4716" d="M119.33,132.017c.108-.048.2-.108.3-.156v-5.5c-.1.048-.2.108-.3.156Z" transform="translate(-64.015 -122.177)" fill="#e39408"/>
          <path id="Path_4717" data-name="Path 4717" d="M118.49,132.4c.108-.048.2-.1.3-.132v-5.5a3.252,3.252,0,0,1-.3.132Z" transform="translate(-64.182 -122.095)" fill="#e39408"/>
          <path id="Path_4718" data-name="Path 4718" d="M114.61,133.775c.1-.024.2-.06.3-.084v-5.5c-.1.024-.2.06-.3.084Z" transform="translate(-64.952 -121.813)" fill="#e39408"/>
          <path id="Path_4719" data-name="Path 4719" d="M113.68,134.025a2.8,2.8,0,0,0,.3-.084v-5.5a2.8,2.8,0,0,0-.3.084Z" transform="translate(-65.137 -121.764)" fill="#e39408"/>
          <path id="Path_4720" data-name="Path 4720" d="M100.69,135.734c.1,0,.2-.012.3-.012v-5.5c-.1,0-.2.012-.3.012Z" transform="translate(-67.717 -121.41)" fill="#e39408"/>
          <path id="Path_4721" data-name="Path 4721" d="M120.14,131.6c.108-.06.2-.12.3-.18v-5.5c-.1.06-.2.12-.3.18Z" transform="translate(-63.854 -122.264)" fill="#e39408"/>
          <path id="Path_4722" data-name="Path 4722" d="M122.54,129.855c.108-.108.2-.216.3-.324v-5.5c-.1.108-.192.216-.3.324Z" transform="translate(-63.377 -122.64)" fill="#e39408"/>
          <path id="Path_4723" data-name="Path 4723" d="M123.3,128.935a4.282,4.282,0,0,0,.3-.563v-5.5a5.072,5.072,0,0,1-.3.563Z" transform="translate(-63.226 -122.87)" fill="#e39408"/>
          <path id="Path_4724" data-name="Path 4724" d="M121.87,130.453c.108-.084.2-.168.3-.252v-5.5c-.1.084-.2.168-.3.252Z" transform="translate(-63.51 -122.507)" fill="#e39408"/>
          <path id="Path_4725" data-name="Path 4725" d="M121.11,131.007c.108-.072.2-.144.3-.216v-5.5c-.1.072-.2.144-.3.216Z" transform="translate(-63.661 -122.389)" fill="#e39408"/>
          <path id="Path_4726" data-name="Path 4726" d="M115.58,133.487c.1-.036.2-.06.3-.1v-5.5c-.1.036-.2.06-.3.1Z" transform="translate(-64.76 -121.873)" fill="#e39408"/>
          <path id="Path_4727" data-name="Path 4727" d="M103.6,135.586c.1-.012.2-.012.3-.024v-5.5c-.1.012-.2.012-.3.024Z" transform="translate(-67.139 -121.442)" fill="#e39408"/>
          <path id="Path_4728" data-name="Path 4728" d="M106.68,135.3l.3-.036v-5.5l-.3.036Z" transform="translate(-66.527 -121.502)" fill="#e39408"/>
          <path id="Path_4729" data-name="Path 4729" d="M105.58,135.418l.3-.036v-5.5l-.3.036Z" transform="translate(-66.746 -121.478)" fill="#e39408"/>
          <path id="Path_4730" data-name="Path 4730" d="M104.57,135.506c.1-.012.2-.012.3-.024v-5.5a2.525,2.525,0,0,1-.3.024Z" transform="translate(-66.946 -121.458)" fill="#e39408"/>
          <path id="Path_4731" data-name="Path 4731" d="M102.67,135.646a2.519,2.519,0,0,0,.3-.024v-5.5c-.1.012-.2.012-.3.024Z" transform="translate(-67.323 -121.43)" fill="#e39408"/>
          <path id="Path_4732" data-name="Path 4732" d="M101.74,135.694c.1,0,.2-.012.3-.012v-5.5c-.1,0-.2.012-.3.012Z" transform="translate(-67.508 -121.418)" fill="#e39408"/>
          <path id="Path_4733" data-name="Path 4733" d="M109.72,134.859c.1-.012.2-.036.3-.048v-5.5c-.1.012-.2.036-.3.048Z" transform="translate(-65.923 -121.591)" fill="#e39408"/>
          <path id="Path_4734" data-name="Path 4734" d="M107.69,135.168l.3-.036v-5.5l-.3.036Z" transform="translate(-66.327 -121.528)" fill="#e39408"/>
          <path id="Path_4735" data-name="Path 4735" d="M110.77,134.671c.1-.024.2-.036.3-.06v-5.5c-.1.024-.2.036-.3.06Z" transform="translate(-65.715 -121.631)" fill="#e39408"/>
          <path id="Path_4736" data-name="Path 4736" d="M111.74,134.471a2.652,2.652,0,0,1,.3-.06v-5.5a2.646,2.646,0,0,1-.3.06Z" transform="translate(-65.522 -121.67)" fill="#e39408"/>
          <path id="Path_4737" data-name="Path 4737" d="M112.75,134.253l.3-.072v-5.5l-.3.072Z" transform="translate(-65.322 -121.716)" fill="#e39408"/>
          <path id="Path_4738" data-name="Path 4738" d="M108.79,135.009c.1-.012.2-.036.3-.048v-5.5c-.1.012-.2.036-.3.048Z" transform="translate(-66.108 -121.561)" fill="#e39408"/>
        </g>
      </g>
      <g id="Group_1072" data-name="Group 1072" transform="translate(12.214 4.483)">
        <path id="Path_4739" data-name="Path 4739" d="M82.95,120.461l22.306,8.81c8.594-.527,15.258-2.889,16.181-5.825l-26.8-6.916C89.231,117.213,84.94,118.652,82.95,120.461Z" transform="translate(-82.95 -116.53)" fill="#fff9a1"/>
      </g>
      <g id="Group_1075" data-name="Group 1075" transform="translate(5.382 1.39)">
        <g id="Group_1073" data-name="Group 1073">
          <path id="Path_4740" data-name="Path 4740" d="M77.25,117.1l6.88,2.721c2.517-1.678,6.94-2.961,12.3-3.524l-9.121-2.349A40.175,40.175,0,0,0,77.25,117.1Z" transform="translate(-77.25 -113.95)" fill="#fffbc7"/>
        </g>
        <g id="Group_1074" data-name="Group 1074" transform="translate(31.931 9.217)">
          <path id="Path_4741" data-name="Path 4741" d="M103.89,128.172l6.88,2.721c7.995-1.354,14.012-3.871,16.169-6.9l-9.133-2.349C117.65,124.672,111.873,127.237,103.89,128.172Z" transform="translate(-103.89 -121.64)" fill="#fffbc7"/>
        </g>
      </g>
      <g id="Group_1076" data-name="Group 1076" transform="translate(10.025 7.251)">
        <path id="Path_4742" data-name="Path 4742" d="M120.119,118.84c.12.276,2.241,1.354,2.241,3.344,0,3.692-9.852,6.868-20.927,6.88-9,0-18.315-2.565-20.052-5.657,1.63,3.368,10.2,5.933,20.508,5.933,11.471,0,20.76-3.188,20.748-7.108C122.624,121,121.713,119.847,120.119,118.84Z" transform="translate(-81.074 -118.84)" fill="#fff"/>
        <path id="Path_4743" data-name="Path 4743" d="M81.419,122.833a2.728,2.728,0,0,1-.288-1.163A1.958,1.958,0,0,0,81.419,122.833Z" transform="translate(-81.124 -118.278)" fill="#fff"/>
      </g>
    </g>
    <g id="Group_1613" data-name="Group 1613" transform="translate(368.209 574.997)">
      <g id="Group_1078" data-name="Group 1078" transform="translate(0 10.476)">
        <path id="Path_4744" data-name="Path 4744" d="M103.408,125.706c-16.912,0-30.636-4.675-30.648-10.464v5.5c.012,5.789,13.736,10.464,30.648,10.464s30.612-4.7,30.588-10.476v-5.5C134.008,121.007,120.32,125.694,103.408,125.706Z" transform="translate(-72.76 -115.23)" fill="#f0b61e"/>
      </g>
      <g id="Group_1079" data-name="Group 1079">
        <path id="Path_4745" data-name="Path 4745" d="M103.348,106.49c-16.912,0-30.612,4.7-30.588,10.476s13.736,10.464,30.648,10.464,30.612-4.7,30.588-10.476S120.26,106.49,103.348,106.49Z" transform="translate(-72.76 -106.49)" fill="#fff33e"/>
      </g>
      <g id="Group_1080" data-name="Group 1080" transform="translate(9.996 3.416)">
        <path id="Path_4746" data-name="Path 4746" d="M101.7,109.34c-11.387,0-20.616,3.164-20.6,7.06s9.253,7.048,20.64,7.048,20.616-3.164,20.6-7.06S113.09,109.34,101.7,109.34Z" transform="translate(-81.1 -109.34)" fill="#f0b61e"/>
      </g>
      <g id="Group_1081" data-name="Group 1081" transform="translate(10.991 4.063)">
        <path id="Path_4747" data-name="Path 4747" d="M101.827,109.88c-10.991,0-19.9,2.973-19.9,6.64s8.93,6.628,19.921,6.628,19.9-2.973,19.9-6.64S112.83,109.88,101.827,109.88Z" transform="translate(-81.93 -109.88)" fill="#fff33e"/>
      </g>
      <g id="Group_1083" data-name="Group 1083" transform="translate(0.503 12.094)">
        <g id="Group_1082" data-name="Group 1082">
          <path id="Path_4748" data-name="Path 4748" d="M89.8,128.972l.3.036v-5.5l-.3-.036Z" transform="translate(-69.879 -115.212)" fill="#e39408"/>
          <path id="Path_4749" data-name="Path 4749" d="M91.91,129.192c.1.012.2.012.3.024v-5.5c-.1-.012-.2-.012-.3-.024Z" transform="translate(-69.46 -115.168)" fill="#e39408"/>
          <path id="Path_4750" data-name="Path 4750" d="M90.9,129.1l.3.036v-5.5l-.3-.036Z" transform="translate(-69.661 -115.186)" fill="#e39408"/>
          <path id="Path_4751" data-name="Path 4751" d="M87.7,128.682c.1.012.2.036.3.048v-5.5c-.1-.012-.2-.036-.3-.048Z" transform="translate(-70.296 -115.269)" fill="#e39408"/>
          <path id="Path_4752" data-name="Path 4752" d="M88.79,128.842l.3.036v-5.5l-.3-.036Z" transform="translate(-70.08 -115.238)" fill="#e39408"/>
          <path id="Path_4753" data-name="Path 4753" d="M86.6,128.5c.1.012.2.036.3.048v-5.5c-.1-.012-.2-.036-.3-.048Z" transform="translate(-70.515 -115.305)" fill="#e39408"/>
          <path id="Path_4754" data-name="Path 4754" d="M97.61,129.472h.3v-5.5h-.3Z" transform="translate(-68.328 -115.112)" fill="#e39408"/>
          <path id="Path_4755" data-name="Path 4755" d="M98.75,129.472h.3v-5.5h-.3Z" transform="translate(-68.102 -115.112)" fill="#e39408"/>
          <path id="Path_4756" data-name="Path 4756" d="M96.6,129.452a2.5,2.5,0,0,1,.3.012v-5.5a2.5,2.5,0,0,1-.3-.012Z" transform="translate(-68.529 -115.116)" fill="#e39408"/>
          <path id="Path_4757" data-name="Path 4757" d="M93.05,129.282c.1.012.2.012.3.024v-5.5c-.1-.012-.2-.012-.3-.024Z" transform="translate(-69.234 -115.15)" fill="#e39408"/>
          <path id="Path_4758" data-name="Path 4758" d="M95.37,129.412c.1,0,.2.012.3.012v-5.5c-.1,0-.2-.012-.3-.012Z" transform="translate(-68.773 -115.124)" fill="#e39408"/>
          <path id="Path_4759" data-name="Path 4759" d="M94.15,129.352c.1,0,.2.012.3.012v-5.5c-.1,0-.2-.012-.3-.012Z" transform="translate(-69.015 -115.136)" fill="#e39408"/>
          <path id="Path_4760" data-name="Path 4760" d="M74.03,117.95v5.5l.3.3v-5.5A3.536,3.536,0,0,1,74.03,117.95Z" transform="translate(-73.011 -116.308)" fill="#e39408"/>
          <path id="Path_4761" data-name="Path 4761" d="M76.05,125.032c.1.06.2.12.3.18v-5.5c-.108-.06-.2-.12-.3-.18Z" transform="translate(-72.61 -115.994)" fill="#e39408"/>
          <path id="Path_4762" data-name="Path 4762" d="M77.15,125.632c.1.048.2.1.3.156v-5.5a2.358,2.358,0,0,1-.3-.156Z" transform="translate(-72.392 -115.875)" fill="#e39408"/>
          <path id="Path_4763" data-name="Path 4763" d="M78.2,126.122c.1.048.2.084.3.132v-5.5c-.108-.048-.2-.084-.3-.132Z" transform="translate(-72.183 -115.778)" fill="#e39408"/>
          <path id="Path_4764" data-name="Path 4764" d="M75.04,124.342c.1.072.2.144.3.216v-5.5c-.108-.072-.2-.144-.3-.216Z" transform="translate(-72.811 -116.131)" fill="#e39408"/>
          <path id="Path_4765" data-name="Path 4765" d="M73.18,122.322a4.14,4.14,0,0,0,.3.491v-5.5a5.4,5.4,0,0,1-.3-.491Z" transform="translate(-73.18 -116.532)" fill="#e39408"/>
          <path id="Path_4766" data-name="Path 4766" d="M99.76,129.454a2.507,2.507,0,0,0,.3-.012v-5.5a2.5,2.5,0,0,0-.3.012Z" transform="translate(-67.901 -115.118)" fill="#e39408"/>
          <path id="Path_4767" data-name="Path 4767" d="M84.49,128.082l.3.072v-5.5l-.3-.072Z" transform="translate(-70.934 -115.388)" fill="#e39408"/>
          <path id="Path_4768" data-name="Path 4768" d="M79.26,126.552a3.117,3.117,0,0,1,.3.12v-5.5a3.12,3.12,0,0,1-.3-.12Z" transform="translate(-71.973 -115.692)" fill="#e39408"/>
          <path id="Path_4769" data-name="Path 4769" d="M82.34,127.552c.1.024.2.06.3.084v-5.5c-.1-.024-.2-.06-.3-.084Z" transform="translate(-71.361 -115.494)" fill="#e39408"/>
          <path id="Path_4770" data-name="Path 4770" d="M85.59,128.312c.1.024.2.036.3.06v-5.5c-.1-.024-.2-.036-.3-.06Z" transform="translate(-70.715 -115.343)" fill="#e39408"/>
          <path id="Path_4771" data-name="Path 4771" d="M80.19,126.892c.1.036.2.072.3.108v-5.5c-.1-.036-.2-.072-.3-.108Z" transform="translate(-71.788 -115.625)" fill="#e39408"/>
          <path id="Path_4772" data-name="Path 4772" d="M81.37,127.272c.1.036.2.06.3.1v-5.5c-.1-.036-.2-.06-.3-.1Z" transform="translate(-71.554 -115.549)" fill="#e39408"/>
          <path id="Path_4773" data-name="Path 4773" d="M83.48,127.852l.3.072v-5.5l-.3-.072Z" transform="translate(-71.134 -115.434)" fill="#e39408"/>
          <path id="Path_4774" data-name="Path 4774" d="M113.68,127.725a2.8,2.8,0,0,0,.3-.084v-5.5a2.793,2.793,0,0,0-.3.084Z" transform="translate(-65.137 -115.476)" fill="#e39408"/>
          <path id="Path_4775" data-name="Path 4775" d="M118.49,126.113c.108-.048.2-.1.3-.132v-5.5a3.256,3.256,0,0,1-.3.132Z" transform="translate(-64.182 -115.805)" fill="#e39408"/>
          <path id="Path_4776" data-name="Path 4776" d="M119.33,125.717c.108-.048.2-.108.3-.156v-5.5c-.1.048-.2.108-.3.156Z" transform="translate(-64.015 -115.889)" fill="#e39408"/>
          <path id="Path_4777" data-name="Path 4777" d="M116.63,126.839c.1-.036.2-.072.3-.108v-5.5c-.1.036-.2.072-.3.108Z" transform="translate(-64.551 -115.657)" fill="#e39408"/>
          <path id="Path_4778" data-name="Path 4778" d="M114.61,127.475c.1-.024.2-.06.3-.084v-5.5c-.1.024-.2.06-.3.084Z" transform="translate(-64.952 -115.525)" fill="#e39408"/>
          <path id="Path_4779" data-name="Path 4779" d="M115.58,127.187c.1-.036.2-.06.3-.1v-5.5c-.1.036-.2.06-.3.1Z" transform="translate(-64.76 -115.585)" fill="#e39408"/>
          <path id="Path_4780" data-name="Path 4780" d="M117.52,126.511c.108-.036.2-.084.3-.12v-5.5c-.1.036-.2.084-.3.12Z" transform="translate(-64.374 -115.724)" fill="#e39408"/>
          <path id="Path_4781" data-name="Path 4781" d="M122.54,123.555c.108-.108.2-.216.3-.324v-5.5c-.1.108-.192.216-.3.324Z" transform="translate(-63.377 -116.352)" fill="#e39408"/>
          <path id="Path_4782" data-name="Path 4782" d="M120.14,125.3c.108-.06.2-.12.3-.18v-5.5c-.1.06-.2.12-.3.18Z" transform="translate(-63.854 -115.976)" fill="#e39408"/>
          <path id="Path_4783" data-name="Path 4783" d="M123.3,122.645a4.281,4.281,0,0,0,.3-.563v-5.5a5.071,5.071,0,0,1-.3.563Z" transform="translate(-63.226 -116.58)" fill="#e39408"/>
          <path id="Path_4784" data-name="Path 4784" d="M121.11,124.717c.108-.072.2-.144.3-.216V119c-.1.072-.2.144-.3.216Z" transform="translate(-63.661 -116.099)" fill="#e39408"/>
          <path id="Path_4785" data-name="Path 4785" d="M121.87,124.153c.108-.084.2-.168.3-.252v-5.5c-.1.084-.2.168-.3.252Z" transform="translate(-63.51 -116.219)" fill="#e39408"/>
          <path id="Path_4786" data-name="Path 4786" d="M109.72,128.561c.1-.012.2-.036.3-.048V123c-.1.012-.2.036-.3.048Z" transform="translate(-65.923 -115.305)" fill="#e39408"/>
          <path id="Path_4787" data-name="Path 4787" d="M104.57,129.206c.1-.012.2-.012.3-.024v-5.5a2.522,2.522,0,0,1-.3.024Z" transform="translate(-66.946 -115.17)" fill="#e39408"/>
          <path id="Path_4788" data-name="Path 4788" d="M103.6,129.286c.1-.012.2-.012.3-.024v-5.5c-.1.012-.2.012-.3.024Z" transform="translate(-67.139 -115.154)" fill="#e39408"/>
          <path id="Path_4789" data-name="Path 4789" d="M105.58,129.118l.3-.036v-5.5l-.3.036Z" transform="translate(-66.746 -115.19)" fill="#e39408"/>
          <path id="Path_4790" data-name="Path 4790" d="M112.75,127.953l.3-.072v-5.5l-.3.072Z" transform="translate(-65.322 -115.428)" fill="#e39408"/>
          <path id="Path_4791" data-name="Path 4791" d="M106.68,129l.3-.036v-5.5l-.3.036Z" transform="translate(-66.527 -115.214)" fill="#e39408"/>
          <path id="Path_4792" data-name="Path 4792" d="M102.67,129.346a2.522,2.522,0,0,0,.3-.024v-5.5c-.1.012-.2.012-.3.024Z" transform="translate(-67.323 -115.142)" fill="#e39408"/>
          <path id="Path_4793" data-name="Path 4793" d="M101.74,129.394c.1,0,.2-.012.3-.012v-5.5c-.1,0-.2.012-.3.012Z" transform="translate(-67.508 -115.13)" fill="#e39408"/>
          <path id="Path_4794" data-name="Path 4794" d="M111.74,128.172a2.649,2.649,0,0,1,.3-.06v-5.5a2.653,2.653,0,0,1-.3.06Z" transform="translate(-65.522 -115.382)" fill="#e39408"/>
          <path id="Path_4795" data-name="Path 4795" d="M107.69,128.868l.3-.036v-5.5l-.3.036Z" transform="translate(-66.327 -115.239)" fill="#e39408"/>
          <path id="Path_4796" data-name="Path 4796" d="M110.77,128.371c.1-.024.2-.036.3-.06v-5.5c-.1.024-.2.036-.3.06Z" transform="translate(-65.715 -115.343)" fill="#e39408"/>
          <path id="Path_4797" data-name="Path 4797" d="M108.79,128.71c.1-.012.2-.036.3-.048v-5.5c-.1.012-.2.036-.3.048Z" transform="translate(-66.108 -115.273)" fill="#e39408"/>
          <path id="Path_4798" data-name="Path 4798" d="M100.69,129.434c.1,0,.2-.012.3-.012v-5.5c-.1,0-.2.012-.3.012Z" transform="translate(-67.717 -115.122)" fill="#e39408"/>
        </g>
      </g>
      <g id="Group_1084" data-name="Group 1084" transform="translate(12.214 4.483)">
        <path id="Path_4799" data-name="Path 4799" d="M82.95,114.161l22.306,8.81c8.594-.527,15.258-2.889,16.181-5.825l-26.8-6.916C89.231,110.913,84.94,112.352,82.95,114.161Z" transform="translate(-82.95 -110.23)" fill="#fff9a1"/>
      </g>
      <g id="Group_1087" data-name="Group 1087" transform="translate(5.382 1.39)">
        <g id="Group_1085" data-name="Group 1085">
          <path id="Path_4800" data-name="Path 4800" d="M77.25,110.8l6.88,2.721c2.517-1.678,6.94-2.961,12.3-3.524l-9.121-2.349A40.175,40.175,0,0,0,77.25,110.8Z" transform="translate(-77.25 -107.65)" fill="#fffbc7"/>
        </g>
        <g id="Group_1086" data-name="Group 1086" transform="translate(31.931 9.229)">
          <path id="Path_4801" data-name="Path 4801" d="M103.89,121.882l6.88,2.721c7.995-1.354,14.012-3.871,16.169-6.9l-9.133-2.349C117.65,118.37,111.873,120.935,103.89,121.882Z" transform="translate(-103.89 -115.35)" fill="#fffbc7"/>
        </g>
      </g>
      <g id="Group_1088" data-name="Group 1088" transform="translate(10.025 7.251)">
        <path id="Path_4802" data-name="Path 4802" d="M120.119,112.54c.12.276,2.241,1.354,2.241,3.344,0,3.692-9.852,6.868-20.927,6.88-9,0-18.315-2.565-20.052-5.657,1.63,3.368,10.2,5.933,20.508,5.933,11.471,0,20.76-3.188,20.748-7.108C122.624,114.7,121.713,113.547,120.119,112.54Z" transform="translate(-81.074 -112.54)" fill="#fff"/>
        <path id="Path_4803" data-name="Path 4803" d="M81.419,116.543a2.915,2.915,0,0,1-.288-1.163A2,2,0,0,0,81.419,116.543Z" transform="translate(-81.124 -111.976)" fill="#fff"/>
      </g>
    </g>
  </g>
</svg>
